<svg width="497" height="496" viewBox="0 0 497 496" fill="none" xmlns="http://www.w3.org/2000/svg">
<path d="M270.56 14.19L253.73 57.63C233.786 57.0599 213.877 59.6278 194.73 65.24L167.44 27.44C161.23 18.84 148.6 16.11 139.44 21.44L107.44 39.74C102.915 42.4414 99.5139 46.6829 97.861 51.6875C96.2081 56.6921 96.4136 62.1247 98.4401 66.99L117.26 109.64C102.732 123.294 90.4512 139.156 80.8701 156.64L34.8701 149.22C29.6573 148.501 24.3595 149.675 19.9379 152.528C15.5162 155.381 12.2636 159.724 10.7701 164.77L1.14014 200.33C-1.67986 210.58 4.14019 222.09 14.0602 225.92L57.5201 242.75C56.9301 262.695 59.4985 282.608 65.1301 301.75L27.3301 329.05C23.1409 332.223 20.2258 336.791 19.1124 341.926C17.999 347.062 18.7609 352.427 21.2601 357.05L39.7301 389C42.4279 393.524 46.6658 396.924 51.667 398.577C56.6682 400.23 62.0977 400.025 66.9601 398L109.59 379.18C123.285 393.684 139.168 405.952 156.66 415.54L149.24 461.54C147.53 472.01 154.56 482.88 164.82 485.66L200.34 495.29C205.462 496.566 210.871 495.958 215.582 493.577C220.293 491.196 223.99 487.2 226 482.32L242.81 438.87C262.754 439.448 282.664 436.883 301.81 431.27L329.15 469.1C332.333 473.278 336.905 476.179 342.04 477.279C347.176 478.38 352.535 477.607 357.15 475.1L389.15 456.79C393.648 454.061 397.019 449.81 398.652 444.809C400.285 439.808 400.071 434.387 398.05 429.53L379.25 386.89C393.772 373.211 406.049 357.329 415.63 339.83L461.63 347.25C466.843 347.972 472.142 346.801 476.566 343.95C480.99 341.098 484.244 336.756 485.74 331.71L495.39 296.16C496.651 291.042 496.032 285.641 493.646 280.941C491.26 276.241 487.266 272.553 482.39 270.55L438.94 253.71C439.529 233.764 436.954 213.85 431.31 194.71L469.13 167.43C473.319 164.257 476.234 159.689 477.348 154.554C478.461 149.418 477.699 144.053 475.2 139.43L456.87 107.49C451.57 98.3 439.34 94.25 429.63 98.55L386.97 117.36C373.307 102.842 357.447 90.562 339.97 80.97L347.34 34.97C348.081 29.7557 346.917 24.4491 344.063 20.0229C341.209 15.5967 336.855 12.3472 331.8 10.87L296.28 1.23002C291.151 -0.0624227 285.728 0.536256 281.005 2.91639C276.281 5.29653 272.573 9.29876 270.56 14.19V14.19Z" fill="url(#paint0_radial)"/>
<path d="M394.69 248.26C394.694 219.302 386.111 190.994 370.026 166.915C353.941 142.835 331.077 124.066 304.325 112.982C277.573 101.897 248.135 98.9939 219.733 104.64C191.331 110.286 165.241 124.228 144.763 144.702C124.285 165.176 110.338 191.263 104.686 219.663C99.0341 248.064 101.931 277.503 113.01 304.257C124.089 331.011 142.854 353.879 166.93 369.969C191.006 386.059 219.313 394.648 248.27 394.65C287.098 394.65 324.336 379.228 351.794 351.775C379.252 324.323 394.682 287.088 394.69 248.26V248.26Z" fill="#F5F5F5"/>
<path d="M248.27 359.69C226.23 359.686 204.686 353.147 186.362 340.899C168.038 328.651 153.758 311.244 145.326 290.88C136.895 270.516 134.692 248.109 138.995 226.493C143.298 204.877 153.914 185.022 169.501 169.439C185.088 153.857 204.945 143.246 226.563 138.949C248.18 134.651 270.586 136.861 290.948 145.298C311.31 153.734 328.712 168.02 340.955 186.347C353.198 204.674 359.732 226.22 359.73 248.26C359.693 277.807 347.937 306.133 327.041 327.023C306.146 347.913 277.817 359.661 248.27 359.69V359.69ZM248.27 165.76C231.954 165.762 216.004 170.602 202.438 179.669C188.873 188.735 178.3 201.62 172.057 216.696C165.815 231.771 164.182 248.358 167.367 264.361C170.551 280.364 178.409 295.063 189.947 306.6C201.486 318.137 216.186 325.993 232.189 329.176C248.192 332.358 264.779 330.724 279.854 324.479C294.928 318.235 307.812 307.66 316.877 294.093C325.942 280.527 330.78 264.577 330.78 248.26C330.77 226.381 322.073 205.402 306.601 189.932C291.13 174.462 270.149 165.768 248.27 165.76V165.76Z" fill="url(#paint1_radial)"/>
<path style="mix-blend-mode:multiply" d="M482.32 270.56L438.87 253.72C439.46 233.774 436.884 213.86 431.24 194.72L469.06 167.44C473.249 164.267 476.164 159.699 477.278 154.563C478.391 149.428 477.629 144.063 475.13 139.44L456.8 107.5C451.5 98.31 439.27 94.26 429.56 98.56L386.9 117.37C373.237 102.852 357.377 90.572 339.9 80.98L347.27 34.98C348.011 29.7656 346.847 24.4591 343.993 20.0329C341.139 15.6066 336.785 12.3571 331.73 10.88L296.21 1.23995C291.099 -0.0244681 285.704 0.585931 281.005 2.96028C276.306 5.33464 272.614 9.31549 270.6 14.1799L253.77 57.6199C233.826 57.0498 213.917 59.6178 194.77 65.23L167.48 27.4299C161.27 18.8299 148.64 16.0999 139.48 21.4299L107.48 39.73C102.955 42.4313 99.5538 46.6728 97.9009 51.6774C96.248 56.682 96.4536 62.1146 98.4801 66.98L117.3 109.63C102.772 123.284 90.4913 139.146 80.9102 156.63L34.9102 149.21C29.6973 148.491 24.3994 149.665 19.9778 152.518C15.5562 155.371 12.3037 159.714 10.8102 164.76L1.18019 200.32C-1.63981 210.57 4.18011 222.08 14.1001 225.91L57.5602 242.74C56.9702 262.685 59.5385 282.598 65.1702 301.74L27.3701 329.04C23.1809 332.213 20.2659 336.781 19.1525 341.916C18.0391 347.052 18.801 352.417 21.3002 357.04L39.7301 389C42.4279 393.524 46.6658 396.924 51.667 398.577C56.6682 400.23 62.0977 400.025 66.9601 398L109.59 379.18C123.285 393.684 139.168 405.952 156.66 415.54L149.24 461.54C147.53 472.01 154.56 482.88 164.82 485.66L200.34 495.29C205.462 496.566 210.871 495.958 215.582 493.577C220.293 491.196 223.99 487.2 226 482.32L242.81 438.87C262.754 439.448 282.664 436.883 301.81 431.27L329.15 469.1C332.333 473.277 336.905 476.179 342.04 477.279C347.176 478.379 352.535 477.607 357.15 475.1L389.15 456.79C393.648 454.061 397.019 449.81 398.652 444.809C400.285 439.808 400.071 434.387 398.05 429.53L379.25 386.89C393.772 373.211 406.049 357.329 415.63 339.83L461.63 347.25C466.843 347.972 472.142 346.801 476.566 343.95C480.99 341.098 484.244 336.756 485.74 331.71L495.39 296.16C496.643 291.035 496.013 285.63 493.614 280.93C491.215 276.231 487.207 272.551 482.32 270.56Z" fill="url(#paint2_linear)"/>
<path style="mix-blend-mode:multiply" d="M81.0001 156.66L35.0001 149.24C30.1501 148.526 25.2024 149.515 21.0001 152.04L393.85 371.19C402.116 361.496 409.382 350.993 415.54 339.84L453.82 346.02L94.9001 135.14C89.7772 141.985 85.1328 149.175 81.0001 156.66V156.66ZM482.34 270.56L438.89 253.72C439.082 246.378 438.835 239.032 438.15 231.72L109.56 38.53L107.5 39.72C102.975 42.4214 99.5738 46.6629 97.9209 51.6675C96.268 56.6721 96.4736 62.1047 98.5001 66.97L117.32 109.62C111.52 115.127 106.082 121.002 101.04 127.21L473.1 345.72C476.093 344.466 478.768 342.558 480.927 340.135C483.087 337.712 484.677 334.837 485.58 331.72L495.23 296.17C496.496 291.063 495.89 285.671 493.522 280.972C491.153 276.274 487.179 272.579 482.32 270.56H482.34ZM379.17 386.9C380.63 385.52 381.98 384.02 383.41 382.6L11.3401 163.6C11.2101 164.01 11.0201 164.37 10.9001 164.78L2.14014 197L398.21 430.21C398.145 429.969 398.065 429.731 397.97 429.5L379.17 386.9Z" fill="url(#paint3_linear)"/>
<defs>
<radialGradient id="paint0_radial" cx="0" cy="0" r="1" gradientUnits="userSpaceOnUse" gradientTransform="translate(248.27 248.26) scale(247.71)">
<stop stop-color="#225156"/>
<stop offset="1" stop-color="#44A2AB"/>
</radialGradient>
<radialGradient id="paint1_radial" cx="0" cy="0" r="1" gradientUnits="userSpaceOnUse" gradientTransform="translate(248.27 248.26) scale(138.56)">
<stop stop-color="#225054"/>
<stop offset="1" stop-color="#225054"/>
</radialGradient>
<linearGradient id="paint2_linear" x1="248.27" y1="633.63" x2="248.27" y2="209.16" gradientUnits="userSpaceOnUse">
<stop stop-color="#00EDFF"/>
<stop offset="0.19" stop-color="#03EDFF"/>
<stop offset="0.33" stop-color="#0CEEFF"/>
<stop offset="0.44" stop-color="#1BEFFF"/>
<stop offset="0.55" stop-color="#31F0FF"/>
<stop offset="0.65" stop-color="#4DF2FF"/>
<stop offset="0.74" stop-color="#70F5FF"/>
<stop offset="0.83" stop-color="#99F8FF"/>
<stop offset="0.92" stop-color="#C8FBFF"/>
<stop offset="1" stop-color="white"/>
</linearGradient>
<linearGradient id="paint3_linear" x1="15.5401" y1="122.32" x2="258.32" y2="236.47" gradientUnits="userSpaceOnUse">
<stop stop-color="#69B5BF"/>
<stop offset="0.24" stop-color="#6CB6C0"/>
<stop offset="0.4" stop-color="#75BBC4"/>
<stop offset="0.54" stop-color="#84C2CB"/>
<stop offset="0.67" stop-color="#9ACDD4"/>
<stop offset="0.79" stop-color="#B6DBE0"/>
<stop offset="0.9" stop-color="#D8ECEE"/>
<stop offset="1" stop-color="white"/>
</linearGradient>
</defs>
</svg>
