<svg width="578" height="946" viewBox="0 0 578 946" fill="none" xmlns="http://www.w3.org/2000/svg">
<path d="M366.93 852.79C366.93 852.79 364.6 867.19 342.54 884.13C329.01 894.48 321.84 894.13 316.37 899.36C311.09 904.36 313 910.17 314.15 913.66C316.75 921.42 329.84 923.43 353.78 919.46C383.12 914.7 389.27 913.26 401.27 905.82C407.27 897.94 407.67 875.1 397.27 856.28C387.1 837.9 366.93 852.79 366.93 852.79Z" fill="url(#paint0_linear)"/>
<path d="M365.07 814.46C365.07 814.46 367.56 854.2 365.14 857.92C356.14 871.68 369.33 870.04 376.2 860.79C382.5 852.19 397.28 856.28 397.28 856.28L397.74 805.13C397.74 805.13 368.53 793.94 365.07 814.46Z" fill="url(#paint1_linear)"/>
<path style="mix-blend-mode:multiply" d="M404.77 896.39C404.07 900.39 402.89 903.67 401.27 905.82C389.27 913.26 383.12 914.7 353.78 919.46C329.84 923.46 316.78 921.46 314.15 913.66C313.29 911.18 312.26 907.52 313.51 903.74C314.92 903.122 316.418 902.73 317.95 902.58C327 901.97 317.16 913.83 349.37 910.71C368.445 908.71 387.116 903.884 404.77 896.39V896.39Z" fill="url(#paint2_linear)"/>
<path style="mix-blend-mode:multiply" d="M398.84 859.63C407.48 877.77 406.84 898.39 401.27 905.82C389.27 913.26 383.12 914.7 353.78 919.46C329.84 923.46 316.78 921.46 314.15 913.66C313.75 912.442 313.416 911.204 313.15 909.95C315.477 909.709 317.79 909.349 320.08 908.87C343.08 904 349.33 884.77 358.08 879.51C366.83 874.25 377.48 879.01 383.08 866.92C386.91 858.76 394.31 858.79 398.84 859.63Z" fill="url(#paint3_linear)"/>
<path style="mix-blend-mode:multiply" d="M375.31 885.33C387.15 881.61 386.08 878.72 390.19 873.79C393.02 870.42 399.41 871.21 403.26 872.04C404.508 876.799 405.219 881.683 405.38 886.6C395.22 893.53 383.94 898.38 366.2 901.46C343.16 905.47 363.43 888.92 375.31 885.33Z" fill="url(#paint4_linear)"/>
<path d="M364.08 332.1C364.08 332.1 345.27 440.6 349.29 558.16C351.4 620.04 364.24 838.48 364.24 838.48C364.24 838.48 388.55 837.97 398.24 830.32C399.63 829.22 411.66 655.6 416.24 605C421.24 550.73 447.66 379.3 447.66 379.3L364.08 332.1Z" fill="url(#paint5_linear)"/>
<path style="mix-blend-mode:multiply" d="M398.13 830.32C399.52 829.22 411.55 655.6 416.13 605C418.59 578 426.41 521.83 433.62 472.32L417.74 463.32C417.74 463.32 396.64 561.14 394.69 620C392.74 678.86 389.35 872.31 371.83 889.49C358.34 902.72 326.4 911.33 313.25 905.6C313.006 906.696 312.912 907.819 312.97 908.94C312.97 909.19 312.97 909.4 313.04 909.65C313.063 909.759 313.08 909.869 313.09 909.98V909.98C313.09 910.06 313.09 910.1 313.09 910.17C313.36 911.36 313.694 912.535 314.09 913.69C316.69 921.45 329.78 923.46 353.72 919.49C383.06 914.73 389.21 913.29 401.21 905.85C401.998 904.774 402.637 903.597 403.11 902.35C403.172 902.193 403.226 902.033 403.27 901.87C403.33 901.74 403.36 901.57 403.41 901.44C403.52 901.12 403.6 900.74 403.7 900.39C403.96 899.55 404.26 898.76 404.46 897.81C404.55 897.4 404.61 896.97 404.68 896.53C404.675 896.494 404.675 896.457 404.68 896.42C404.79 895.7 404.88 894.92 404.97 894.16C405.03 893.61 405.13 893.11 405.17 892.54C405.312 890.73 405.362 888.915 405.32 887.1V886.71C405.052 876.078 402.269 865.66 397.2 856.31L397.44 830.76C397.66 830.59 397.94 830.47 398.13 830.32Z" fill="url(#paint6_linear)"/>
<path d="M362.07 193.92C343.64 235.54 306.89 288.77 300.46 295.86C294.03 302.95 193.7 276.47 193.7 276.47C187.39 274.06 177.51 267.11 170.94 259.03C164.37 250.95 159.41 247.78 150.85 256.03C142.29 264.28 120.24 282.03 136.2 293.17C152.16 304.31 160.73 298.17 177.78 298.6C177.78 298.6 309.16 350.37 320.33 339.84C350.54 311.43 383.65 268.66 406.23 227.84C429.06 186.76 388.92 148.91 362.07 193.92Z" fill="url(#paint7_linear)"/>
<path d="M391.2 172.83C391.2 172.83 376.48 170.02 361.2 189.59C345.92 209.16 305.3 290.02 298.37 294.38C291.44 298.74 191.13 275.32 191.13 275.32C191.13 275.32 184.24 292.05 184.65 302.53C185.06 313.01 309.47 347.32 319.71 344.39C329.95 341.46 362.25 298.95 395.31 253C428.37 207.05 425.28 178 391.2 172.83Z" fill="url(#paint8_linear)"/>
<path style="mix-blend-mode:multiply" d="M391.2 172.83C391.2 172.83 379.79 170.7 366.61 183.51C359.55 201.44 349.68 230 348.72 251.96C347.23 286.47 323.79 314.14 312.89 315.11C301.99 316.08 184.97 293.17 143.43 269.43C141.99 268.61 140.64 268.04 139.25 267.35C131.59 275.78 125.79 285.88 136.2 293.14C152.2 304.24 160.73 298.14 177.78 298.57C177.78 298.57 180.33 299.57 184.66 301.22C184.66 301.66 184.6 302.12 184.6 302.53C185.03 313 309.42 347.32 319.66 344.39C329.9 341.46 362.2 298.95 395.26 253C428.32 207.05 425.28 178 391.2 172.83Z" fill="url(#paint9_linear)"/>
<path d="M286.44 709.74L178.26 729.15L83.25 199.36L191.41 179.98L286.44 709.74Z" fill="url(#paint10_linear)"/>
<path style="mix-blend-mode:multiply" d="M262.34 714.07L202.33 724.83L107.3 195.05L167.32 184.28L262.34 714.07Z" fill="url(#paint11_linear)"/>
<path d="M163.92 0.780029L180.53 93.33C183.234 108.653 179.764 124.423 170.876 137.195C161.989 149.966 148.408 158.701 133.1 161.49L131.5 161.77C116.179 164.475 100.41 161.005 87.6383 152.12C74.8669 143.235 66.1314 129.656 63.3402 114.35L46.7301 21.77C25.2824 39.0447 10.1955 62.9678 3.84921 89.766C-2.49713 116.564 0.258227 144.713 11.6805 169.772C23.1028 194.831 42.5421 215.374 66.9325 228.162C91.3228 240.95 119.276 245.255 146.384 240.397C173.492 235.539 198.211 221.796 216.643 201.334C235.075 180.873 246.171 154.858 248.181 127.392C250.191 99.9256 243.001 72.5719 227.744 49.6449C212.487 26.7179 190.032 9.52229 163.92 0.77002V0.780029Z" fill="url(#paint12_linear)"/>
<path d="M207.48 918L190.89 825.44C188.18 810.117 191.649 794.344 200.537 781.571C209.425 768.798 223.01 760.064 238.32 757.28L239.92 757C255.239 754.296 271.005 757.766 283.774 766.651C296.542 775.537 305.273 789.116 308.06 804.42L324.66 897C346.091 879.73 361.165 855.818 367.503 829.033C373.841 802.249 371.082 774.118 359.664 749.074C348.245 724.031 328.815 703.501 304.437 690.722C280.06 677.943 252.122 673.642 225.03 678.497C197.938 683.353 173.233 697.088 154.81 717.537C136.388 737.986 125.296 763.986 123.285 791.436C121.273 818.886 128.456 846.225 143.701 869.141C158.946 892.058 181.385 909.247 207.48 918V918Z" fill="url(#paint13_linear)"/>
<path d="M381.26 116.08C381.26 116.08 366.93 103.63 365.54 77.5699C364.15 51.5099 378.36 28.11 378.36 28.11C378.36 28.11 387.36 44.83 414.26 46.79C444.1 48.95 467.08 60.79 459.77 97.54C453.42 129.54 437.77 136.84 437.9 153.93C438.01 165.93 407.2 112.29 407.2 112.29L381.26 116.08Z" fill="url(#paint14_linear)"/>
<path d="M390.15 173.3C394.372 171.277 398.713 169.514 403.15 168.02C403.85 164.32 404.82 155.65 405.3 152.02C399.62 151.7 395.8 150.77 388.97 148.78C373.49 144.21 370.08 108.32 369.58 83.86C374.44 82.98 376.02 78.38 377.43 76.65C383.96 81.29 389.66 85.25 400.54 84.11C424.27 81.73 419.54 79.74 424.63 82.38C429.72 85.02 429.55 93.6 429.55 93.6C429.55 93.6 440.43 92.13 443.74 99.21C447.05 106.29 433.28 117.05 433.28 117.05C433.28 117.05 437.99 165.05 466.97 175.91C466.97 175.91 448.02 172.98 440.78 178.91C412.15 202.51 413.87 217.42 393.4 220.91C371.24 224.8 374.67 202.89 390.15 173.3Z" fill="url(#paint15_linear)"/>
<path style="mix-blend-mode:multiply" d="M433.33 117.06C433.33 117.06 447.16 106.31 443.79 99.22C440.42 92.13 429.6 93.61 429.6 93.61C429.6 93.61 429.76 84.98 424.68 82.39C419.6 79.8 424.32 81.74 400.59 84.12C389.71 85.26 384.01 81.3 377.48 76.66C376.07 78.39 374.48 82.99 369.63 83.87C369.69 86.65 369.8 89.64 369.95 92.66C371.366 91.761 372.643 90.6593 373.74 89.39C377.36 84.94 375.41 88.56 392.14 89.39C408.87 90.22 417.86 84.94 420.08 90.52C422.3 96.1 426.77 100.29 428.44 100.29C430.11 100.29 440.77 98.05 441.32 101.4C441.87 104.75 430.18 111.4 429.6 113.68C429.02 115.96 433.76 139.68 430.97 142.68C428.18 145.68 407.23 151.06 391.32 145.2C388.082 143.907 384.712 142.975 381.27 142.42C383.48 145.42 385.96 147.87 389.02 148.76C395.85 150.76 399.67 151.68 405.35 152C405.24 152.77 405.12 153.84 404.97 155C407.43 155.31 409.76 155.54 411.7 155.64C420.35 156.1 423.56 163.64 416.94 163.35C410.64 163.07 411.94 160.43 404.49 158.93C404.07 162.34 403.6 165.93 403.2 167.99C399.289 169.291 395.459 170.823 391.73 172.58C390.024 176.955 388.584 181.43 387.42 185.98L424.72 194.42C429.659 188.82 435.047 183.633 440.83 178.91C448.07 172.91 467.02 175.91 467.02 175.91C438 165 433.33 117.06 433.33 117.06Z" fill="url(#paint16_linear)"/>
<path d="M464.64 874.14C464.64 874.14 463.41 888.68 442.64 907.21C429.92 918.57 422.75 918.74 417.64 924.38C412.76 929.76 415.09 935.38 416.52 938.79C419.69 946.35 432.89 947.36 456.52 941.61C485.42 934.61 491.43 932.75 502.84 924.42C508.17 916.13 506.91 893.33 495.15 875.32C483.67 857.77 464.64 874.14 464.64 874.14Z" fill="url(#paint17_linear)"/>
<path d="M459.91 836.05C459.91 836.05 465.38 875.5 463.25 879.38C455.25 893.78 468.34 891.16 474.5 881.38C480.13 872.38 495.18 875.28 495.18 875.28L491.78 824.28C491.78 824.28 461.81 815.34 459.91 836.05Z" fill="url(#paint18_linear)"/>
<path style="mix-blend-mode:multiply" d="M505.65 914.77C505.26 918.77 504.32 922.18 502.87 924.42C491.46 932.75 485.45 934.65 456.55 941.61C432.97 947.36 419.77 946.35 416.55 938.79C415.49 936.39 414.18 932.79 415.15 928.95C416.515 928.235 417.982 927.736 419.5 927.47C428.5 926.17 419.5 938.74 451.43 933.21C470.32 929.794 488.594 923.579 505.65 914.77Z" fill="url(#paint19_linear)"/>
<path style="mix-blend-mode:multiply" d="M497 878.56C507 895.99 508 916.62 502.9 924.42C491.49 932.75 485.48 934.65 456.58 941.61C433 947.36 419.8 946.35 416.58 938.79C416.076 937.616 415.648 936.41 415.3 935.18C417.39 934.74 419.6 934.36 422.12 933.58C444.68 926.99 449.48 907.36 457.86 901.44C466.24 895.52 477.17 899.44 481.86 887.01C485 878.58 492.4 878.05 497 878.56Z" fill="url(#paint20_linear)"/>
<path style="mix-blend-mode:multiply" d="M475.45 906C486.98 901.4 485.69 898.61 489.45 893.36C492.03 889.8 498.45 890.11 502.34 890.65C503.949 895.302 505.035 900.118 505.58 905.01C495.95 912.7 485.07 918.37 467.58 922.78C444.89 928.45 463.86 910.42 475.45 906Z" fill="url(#paint21_linear)"/>
<path d="M422.65 355.13C422.65 355.13 412.06 464.74 424.92 581.65C431.68 643.22 460.92 860.07 460.92 860.07C460.92 860.07 485.13 857.73 494.15 849.38C495.46 848.18 494.42 674.14 495.15 623.38C496.02 568.89 499.74 360.76 499.74 360.76L422.65 355.13Z" fill="url(#paint22_linear)"/>
<path d="M383.12 173.56C383.12 173.56 353 208.75 355.58 278C358.03 344.31 352.75 366 352.8 435.54C352.8 446.35 409.72 445.93 438.06 443.54C466.4 441.15 498.06 433.08 498.06 433.08C498.06 433.08 498.13 248.26 491.06 209.25C483.15 165.77 457.47 175.72 426.46 171.25C398.06 167.19 383.12 173.56 383.12 173.56Z" fill="url(#paint23_linear)"/>
<path d="M404.12 459.41C404.12 458.71 396.46 383.93 394.84 294.41C393.2 204.14 411.13 169.7 411.84 168.28L417.75 171.46C417.57 171.76 399.9 206.11 401.5 294.28C403.16 383.62 404.12 459.41 404.12 459.41Z" fill="url(#paint24_linear)"/>
<path d="M391.26 289.78L373.32 305.79L358.9 288.57L357.78 252.53H391.26V289.78Z" fill="url(#paint25_linear)"/>
<path d="M447.64 289.77L427.17 305.87L410.74 288.77L409.43 252.72L447.63 252.52L447.64 289.77Z" fill="url(#paint26_linear)"/>
<path style="mix-blend-mode:multiply" d="M383.13 173.56C381.02 176.314 379.073 179.188 377.3 182.17C381.16 183.17 388.42 184.65 394.73 183.64C403.8 182.19 408.02 181.02 411.07 185.47C414.12 189.92 420.21 194.47 427.47 194.47C434.73 194.47 428.18 207.81 438.96 226.53C449.74 245.25 476.87 293.86 482.8 308.86C488.73 323.86 482.39 369.59 479.15 378.13C475.91 386.67 465.93 414.49 440.29 421.99C425.73 426.25 418.29 433.99 417.83 444.71C418.1 444.71 418.39 444.71 418.66 444.71C418.66 447.16 418.66 449.94 418.66 452.46C420.21 458.99 423.66 466.32 429.57 474.65C449.03 502.01 460.29 505.12 468.41 495.13C476.53 485.14 472.52 539.34 472.96 578.8C473.4 618.26 469.67 700.8 472.16 758.89C474.65 816.98 486.66 884.95 477.53 906.3C469.14 925.91 421.78 942.2 415.53 928.21C415.408 928.462 415.304 928.723 415.22 928.99C415.22 929.05 415.22 929.11 415.22 929.17C414.816 930.81 414.796 932.521 415.16 934.17C415.2 934.43 415.257 934.687 415.33 934.94C415.325 935.033 415.325 935.127 415.33 935.22C415.33 935.3 415.33 935.35 415.39 935.44C415.729 936.593 416.136 937.725 416.61 938.83C419.77 946.39 432.97 947.4 456.61 941.65C485.51 934.65 491.51 932.79 502.92 924.46C503.631 923.32 504.183 922.089 504.56 920.8C504.61 920.67 504.64 920.52 504.68 920.39C504.72 920.26 504.77 919.85 504.83 919.6C504.84 919.544 504.84 919.486 504.83 919.43C505.128 918.349 505.358 917.25 505.52 916.14C505.52 915.78 505.59 915.4 505.62 915.03C505.644 914.959 505.661 914.885 505.67 914.81V914.81C505.73 914.29 505.73 913.72 505.76 913.18C505.76 912.37 505.89 911.61 505.89 910.76C505.89 909.23 505.78 907.58 505.64 905.93C505.64 905.59 505.64 905.28 505.58 904.93C504.496 894.384 500.947 884.241 495.22 875.32L493.52 849.83C493.71 849.67 493.99 849.54 494.17 849.38C495.47 848.18 494.43 674.14 495.17 623.38C496.03 568.89 499.75 360.76 499.75 360.76L497.57 360.6C496.87 304.28 495.17 232.06 491.05 209.33C483.14 165.85 457.46 175.8 426.45 171.33C398.07 167.19 383.13 173.56 383.13 173.56Z" fill="url(#paint27_linear)"/>
<path d="M414.83 169.9C414.83 169.9 429.6 164.14 438.59 161.58C447.07 159.16 447.15 158.69 447.15 158.69C447.15 158.69 461.15 172.13 467.02 174.75C472.89 177.37 444.23 183.35 431.02 183.62C417.81 183.89 414.83 178 414.83 169.9Z" fill="#07282B"/>
<path d="M414.83 169.9C414.83 169.9 413 170.43 408.55 175.2C404.1 179.97 397.66 179.02 397.66 179.02C397.66 179.02 383.16 173.74 387.75 172.14C396.07 169.22 401.75 164.98 404.21 161.14C407.67 162.21 414.83 169.9 414.83 169.9Z" fill="#07282B"/>
<path d="M456 233.82C487.21 266.97 522 321.52 526 330.2C530 338.88 466.64 421.06 466.64 421.06C461.99 425.94 451.72 432.31 441.73 435.24C431.74 438.17 426.87 441.5 431.14 452.57C435.41 463.64 443.21 490.89 459.66 480.49C476.11 470.09 473.81 459.86 480.79 444.31C480.79 444.31 579.55 343.31 574.19 328.97C559.76 290.1 533.19 242.97 504.41 206.3C475.43 169.33 424.94 191.61 456 233.82Z" fill="url(#paint28_linear)"/>
<path d="M447.79 189.38C447.79 189.38 471.46 165.74 503.66 199.75C535.86 233.76 579.29 321.35 577.03 335.18C574.77 349.01 491.94 437.03 487.62 439.37C483.3 441.71 467.55 426.3 466.62 421.06C465.69 415.82 517.53 343.89 521.03 331.63C524.53 319.37 417.23 227.38 447.79 189.38Z" fill="url(#paint29_linear)"/>
<path style="mix-blend-mode:multiply" d="M503.66 199.75C478.3 172.97 458.29 181.91 450.93 186.93C460.52 193.15 489.51 214.08 509.72 251.93C534.25 297.93 559.81 326.93 540.33 354.29C522.54 379.29 474.99 445.52 436.23 465.8C441.04 476.8 448.23 487.65 459.66 480.46C476.09 470.06 473.81 459.83 480.79 444.28C480.79 444.28 482.55 442.48 485.47 439.44C486.174 439.674 486.94 439.638 487.62 439.34C491.94 437 574.79 349 577.03 335.15C579.27 321.3 535.84 233.75 503.66 199.75Z" fill="url(#paint30_linear)"/>
<defs>
<linearGradient id="paint0_linear" x1="-265240" y1="228897" x2="-263908" y2="233380" gradientUnits="userSpaceOnUse">
<stop stop-color="#101719"/>
<stop offset="1" stop-color="#243137"/>
</linearGradient>
<linearGradient id="paint1_linear" x1="374.614" y1="817.157" x2="380.713" y2="923.835" gradientUnits="userSpaceOnUse">
<stop stop-color="#FFD1AE"/>
<stop offset="1" stop-color="#F9AC78"/>
</linearGradient>
<linearGradient id="paint2_linear" x1="297.164" y1="928.025" x2="394.8" y2="901.192" gradientUnits="userSpaceOnUse">
<stop stop-color="#AFAFAF"/>
<stop offset="0.4" stop-color="#CCCCCC"/>
<stop offset="1" stop-color="white"/>
</linearGradient>
<linearGradient id="paint3_linear" x1="301481" y1="120205" x2="307801" y2="123199" gradientUnits="userSpaceOnUse">
<stop stop-color="#AFAFAF"/>
<stop offset="0.4" stop-color="#CCCCCC"/>
<stop offset="1" stop-color="white"/>
</linearGradient>
<linearGradient id="paint4_linear" x1="164960" y1="60165.1" x2="163058" y2="59795.4" gradientUnits="userSpaceOnUse">
<stop stop-color="#AFAFAF"/>
<stop offset="0.4" stop-color="#CCCCCC"/>
<stop offset="1" stop-color="white"/>
</linearGradient>
<linearGradient id="paint5_linear" x1="405.55" y1="783.07" x2="388.8" y2="42.78" gradientUnits="userSpaceOnUse">
<stop stop-color="#225156"/>
<stop offset="1" stop-color="#1C9FAC"/>
</linearGradient>
<linearGradient id="paint6_linear" x1="353166" y1="906864" x2="472413" y2="794323" gradientUnits="userSpaceOnUse">
<stop stop-color="white"/>
<stop offset="1" stop-color="#BFBFBF"/>
</linearGradient>
<linearGradient id="paint7_linear" x1="688794" y1="-444734" x2="717863" y2="-471878" gradientUnits="userSpaceOnUse">
<stop stop-color="#FFD1AE"/>
<stop offset="1" stop-color="#F9AC78"/>
</linearGradient>
<linearGradient id="paint8_linear" x1="674116" y1="324349" x2="672000" y2="197093" gradientUnits="userSpaceOnUse">
<stop stop-color="#225156"/>
<stop offset="1" stop-color="#1C9FAC"/>
</linearGradient>
<linearGradient id="paint9_linear" x1="798796" y1="244513" x2="831067" y2="210863" gradientUnits="userSpaceOnUse">
<stop stop-color="white"/>
<stop offset="1" stop-color="#BFBFBF"/>
</linearGradient>
<linearGradient id="paint10_linear" x1="116.727" y1="74.2472" x2="274.763" y2="955.225" gradientUnits="userSpaceOnUse">
<stop stop-color="#2F2F2F"/>
<stop offset="1" stop-color="#8E8E8E"/>
</linearGradient>
<linearGradient id="paint11_linear" x1="577176" y1="849787" x2="533006" y2="603562" gradientUnits="userSpaceOnUse">
<stop stop-color="white"/>
<stop offset="1" stop-color="#BFBFBF"/>
</linearGradient>
<linearGradient id="paint12_linear" x1="668599" y1="245923" x2="668599" y2="428075" gradientUnits="userSpaceOnUse">
<stop stop-color="#2F2F2F"/>
<stop offset="1" stop-color="#8E8E8E"/>
</linearGradient>
<linearGradient id="paint13_linear" x1="-1.18312e+06" y1="195655" x2="-1.21526e+06" y2="16462.6" gradientUnits="userSpaceOnUse">
<stop stop-color="#2F2F2F"/>
<stop offset="1" stop-color="#8E8E8E"/>
</linearGradient>
<linearGradient id="paint14_linear" x1="280623" y1="157088" x2="287717" y2="193593" gradientUnits="userSpaceOnUse">
<stop stop-color="#101719"/>
<stop offset="1" stop-color="#243137"/>
</linearGradient>
<linearGradient id="paint15_linear" x1="-288319" y1="217098" x2="-292196" y2="262191" gradientUnits="userSpaceOnUse">
<stop stop-color="#FFD1AE"/>
<stop offset="1" stop-color="#F9AC78"/>
</linearGradient>
<linearGradient id="paint16_linear" x1="289800" y1="134568" x2="293339" y2="153231" gradientUnits="userSpaceOnUse">
<stop stop-color="white"/>
<stop offset="1" stop-color="#BFBFBF"/>
</linearGradient>
<linearGradient id="paint17_linear" x1="-235681" y1="248875" x2="-233946" y2="253452" gradientUnits="userSpaceOnUse">
<stop stop-color="#101719"/>
<stop offset="1" stop-color="#243137"/>
</linearGradient>
<linearGradient id="paint18_linear" x1="-96973.4" y1="136748" x2="-96079.8" y2="143837" gradientUnits="userSpaceOnUse">
<stop stop-color="#FFD1AE"/>
<stop offset="1" stop-color="#F9AC78"/>
</linearGradient>
<linearGradient id="paint19_linear" x1="-291608" y1="98598.7" x2="-285500" y2="93538.7" gradientUnits="userSpaceOnUse">
<stop stop-color="#AFAFAF"/>
<stop offset="0.4" stop-color="#CCCCCC"/>
<stop offset="1" stop-color="white"/>
</linearGradient>
<linearGradient id="paint20_linear" x1="-272087" y1="164036" x2="-278063" y2="167611" gradientUnits="userSpaceOnUse">
<stop stop-color="#AFAFAF"/>
<stop offset="0.4" stop-color="#CCCCCC"/>
<stop offset="1" stop-color="white"/>
</linearGradient>
<linearGradient id="paint21_linear" x1="-148519" y1="84700.6" x2="-146706" y2="84133.5" gradientUnits="userSpaceOnUse">
<stop stop-color="#AFAFAF"/>
<stop offset="0.4" stop-color="#CCCCCC"/>
<stop offset="1" stop-color="white"/>
</linearGradient>
<linearGradient id="paint22_linear" x1="314338" y1="915154" x2="235318" y2="553343" gradientUnits="userSpaceOnUse">
<stop stop-color="#225156"/>
<stop offset="1" stop-color="#1C9FAC"/>
</linearGradient>
<linearGradient id="paint23_linear" x1="436426" y1="518174" x2="427715" y2="314844" gradientUnits="userSpaceOnUse">
<stop stop-color="#225156"/>
<stop offset="1" stop-color="#1C9FAC"/>
</linearGradient>
<linearGradient id="paint24_linear" x1="396.36" y1="448.41" x2="406.37" y2="218.39" gradientUnits="userSpaceOnUse">
<stop stop-color="#07282B"/>
<stop offset="1" stop-color="#07282B"/>
</linearGradient>
<linearGradient id="paint25_linear" x1="98762.1" y1="74836.3" x2="99172.1" y2="72647.3" gradientUnits="userSpaceOnUse">
<stop stop-color="#07282B"/>
<stop offset="1" stop-color="#07282B"/>
</linearGradient>
<linearGradient id="paint26_linear" x1="134396" y1="74849.8" x2="134716" y2="72624.7" gradientUnits="userSpaceOnUse">
<stop stop-color="#07282B"/>
<stop offset="1" stop-color="#07282B"/>
</linearGradient>
<linearGradient id="paint27_linear" x1="388894" y1="1.59438e+06" x2="311259" y2="1.00088e+06" gradientUnits="userSpaceOnUse">
<stop stop-color="white"/>
<stop offset="1" stop-color="#BFBFBF"/>
</linearGradient>
<linearGradient id="paint28_linear" x1="-46859.4" y1="-526733" x2="-53548.6" y2="-546026" gradientUnits="userSpaceOnUse">
<stop stop-color="#FFD1AE"/>
<stop offset="1" stop-color="#F9AC78"/>
</linearGradient>
<linearGradient id="paint29_linear" x1="416911" y1="486893" x2="408637" y2="296006" gradientUnits="userSpaceOnUse">
<stop stop-color="#225156"/>
<stop offset="1" stop-color="#1C9FAC"/>
</linearGradient>
<linearGradient id="paint30_linear" x1="436701" y1="410159" x2="401607" y2="427023" gradientUnits="userSpaceOnUse">
<stop stop-color="white"/>
<stop offset="1" stop-color="#BFBFBF"/>
</linearGradient>
</defs>
</svg>
