<svg width="3600" height="2250" viewBox="0 0 3600 2250" fill="none" xmlns="http://www.w3.org/2000/svg">
<path d="M3570 643.92C3580.37 652.27 3590.17 660.67 3600 669.05V0H3415.11C3339.36 109.23 3225.88 367.05 3570 643.92Z" fill="#4AACB8"/>
<path style="mix-blend-mode:color-burn" d="M3600 389.69V0H3452.53C3431 83.06 3412.06 263.53 3600 389.69Z" fill="url(#paint0_linear)"/>
<path style="mix-blend-mode:color-burn" d="M0 0V1828.07C259.07 1725.23 671.75 1838.38 1065 1873.32C1552.5 1916.63 1020 1477.5 1065 884C1100.42 417 1679.06 109.74 1924.07 0L0 0Z" fill="url(#paint1_linear)"/>
<g style="mix-blend-mode:screen">
<path style="mix-blend-mode:screen" d="M42.76 2250H159.76C153.07 2198.12 117.16 2155.46 117.16 2155.46C117.16 2155.46 59.44 2192.89 42.76 2250ZM756.17 1805.05C816.55 1778.38 841 1701.17 841 1701.17C841 1701.17 767.45 1667.17 707 1693.86C687.09 1702.66 671.23 1716.86 658.73 1732.03C665.73 1700.95 667.86 1679.21 668.48 1668.34C689.97 1654.34 719.63 1629.49 730.86 1594.34C749.36 1536.46 711.19 1472.49 711.19 1472.49C711.19 1472.49 642.9 1502.41 624.44 1560.24C610.85 1602.75 627.78 1648.39 637.8 1669.71C636.16 1689.71 629.01 1742.82 599.25 1819.71C599.58 1804.05 597.62 1787.71 591.59 1772C568.18 1710.23 492.34 1681.78 492.34 1681.78C492.34 1681.78 454.55 1753.41 477.99 1815.16C495.23 1860.63 540.71 1887.99 563.71 1899.28C541.53 1943.28 512.82 1991.96 475.53 2044.7C481.25 2025.46 484.33 2003.7 480.21 1981.86C468.21 1916.86 398.61 1875.41 398.61 1875.41C398.61 1875.41 348.61 1939.16 360.71 2004.06C369.81 2053.06 411.57 2088.72 431.61 2103.26C428.45 2107.26 425.47 2111.1 422.29 2115.08C389.666 2155.42 353.345 2192.62 313.8 2226.2C324.14 2206.67 332.21 2183.29 331.51 2158.2C329.65 2092.2 267.33 2040.39 267.33 2040.39C267.33 2040.39 208.08 2095.67 209.99 2161.7C210.99 2197.26 229.47 2228.57 246.34 2249.99H332.26C350.39 2234.58 368.38 2218.44 385.94 2200.84C399.62 2211.14 453.88 2248.38 510.29 2239.37C575.55 2228.88 618.75 2160.43 618.75 2160.43C618.75 2160.43 556.25 2108.84 491.03 2119.28C472.68 2122.23 456.14 2129.81 441.78 2139.17C443.14 2137.46 444.59 2135.83 445.94 2134.17C479.977 2092.16 511.518 2048.18 540.4 2002.47C562.81 2013.82 612.86 2034.34 660.15 2020.6C723.57 2002.01 757.88 1928.6 757.88 1928.6C757.88 1928.6 689.46 1885.27 626.06 1903.85C610.58 1908.33 596.87 1916.12 584.94 1925.34C608.82 1879.72 625.81 1839.01 638.03 1803.86C662.91 1812.17 712.82 1824.16 756.17 1805.05Z" fill="url(#paint2_linear)"/>
<path style="mix-blend-mode:screen" d="M350.41 1800.7C389.31 1767.13 389.99 1704.07 389.99 1704.07C389.99 1704.07 327.5 1695.47 288.54 1729.07C275.73 1740.14 267.14 1754.34 261.28 1768.46C259.42 1743.73 256.08 1727.06 254.08 1718.81C266.89 1703.49 283.33 1678.27 283.73 1649.56C284.36 1602.26 241.39 1563.29 241.39 1563.29C241.39 1563.29 197.33 1601.08 196.73 1648.29C196.26 1683.05 219.24 1713.18 231.55 1726.77C234.87 1742.08 241.55 1783.21 236.89 1847.2C233.58 1835.46 228.41 1823.72 220.36 1813.42C188.89 1772.72 125.96 1768.78 125.96 1768.78C125.96 1768.78 114.1 1830.7 145.58 1871.35C168.74 1901.29 208.81 1911.35 228.52 1914.52C221.98 1952.3 211.67 1995.1 195.88 2042.84C195.78 2027.23 193.13 2010.32 185.1 1994.98C161.4 1949.33 100.15 1934.25 100.15 1934.25C100.15 1934.25 77.4 1993.07 101.15 2038.67C119.05 2073.1 158.25 2090.14 176.47 2096.43C175.02 2100.1 173.69 2103.66 172.23 2107.35C157.083 2144.81 138.476 2180.77 116.65 2214.77C119.93 2197.87 120.65 2178.63 114.41 2160.12C98 2111.43 39.87 2087 39.87 2087C39.87 2087 8.31003 2141.63 24.73 2190.38C34.1 2218.38 57.1 2238.09 75.1 2250.01H121.41C137.201 2227.4 151.633 2203.87 164.63 2179.55C177.17 2184.11 226.03 2199.55 265.99 2179.99C312.2 2157.34 328.81 2096.57 328.81 2096.57C328.81 2096.57 270.56 2072.34 224.37 2094.93C211.37 2101.3 200.77 2110.7 192.2 2120.93C192.83 2119.35 193.55 2117.8 194.2 2116.23C210.007 2077.21 223.506 2037.29 234.63 1996.68C253.91 2000.05 295.83 2003.96 327.91 1982.99C370.91 1954.75 379.8 1892.31 379.8 1892.31C379.8 1892.31 319 1875.59 276 1903.83C265.909 1910.59 257.183 1919.19 250.28 1929.18C256.778 1895.35 260.763 1861.08 262.2 1826.66C282.6 1827.19 322.49 1824.76 350.41 1800.7Z" fill="url(#paint3_linear)"/>
<path style="mix-blend-mode:screen" d="M506.1 2220.66C503.505 2230.21 502.438 2240.11 502.94 2250H595.84C596.26 2248.75 596.84 2247.63 597.22 2246.35C611.22 2196.9 576.97 2143.89 576.97 2143.89C576.97 2143.89 520.09 2171.16 506.1 2220.66ZM984.32 1988.85C967.49 1990.75 952.38 1997.62 939.58 2005.99C952 1984.53 958.65 1968.87 961.66 1960.99C980.89 1955.57 1008.66 1943.99 1025.23 1920.56C1052.45 1881.88 1038.98 1825.47 1038.98 1825.47C1038.98 1825.47 981.28 1831.76 954.11 1870.47C934.11 1898.88 936.06 1936.74 938.54 1954.9C932.65 1969.42 914.97 2007.16 874.95 2057.31C878.85 2045.75 881.22 2033.15 880.39 2020.08C877.39 1968.74 827.68 1929.95 827.68 1929.95C827.68 1929.95 782.91 1974.35 785.96 2025.7C788.16 2063.49 815.58 2094.4 830.04 2108.15C799.119 2139.72 765.902 2168.96 730.66 2195.63C739.38 2182.63 746.75 2167.23 748.78 2150.05C754.98 2098.98 712.94 2051.96 712.94 2051.96C712.94 2051.96 660.94 2087.66 654.83 2138.71C650.17 2177.25 672.89 2213.43 684.4 2228.9C681.12 2231.12 678.02 2233.31 674.71 2235.53C667.06 2240.63 659.37 2245.42 651.71 2250.08H695.27C727.676 2228.23 758.865 2204.62 788.7 2179.37C802.7 2193.02 835.11 2219.92 873.41 2220.72C924.87 2221.72 967.41 2175.18 967.41 2175.18C967.41 2175.18 926.69 2127 875.24 2126C863.1 2125.88 851.046 2128.05 839.71 2132.4C864.175 2108.15 886.813 2082.12 907.44 2054.53C923.99 2066.53 958.3 2087.01 994.92 2082.91C1045.99 2077.18 1082.15 2025.5 1082.15 2025.5C1082.15 2025.5 1035.42 1983.13 984.32 1988.85ZM359.53 2250H449.91C449.209 2230.96 445.378 2212.17 438.57 2194.38C438.57 2194.38 384.55 2209.39 359.53 2250Z" fill="url(#paint4_linear)"/>
</g>
<defs>
<linearGradient id="paint0_linear" x1="3696.64" y1="48.9" x2="1499.15" y2="1931.39" gradientUnits="userSpaceOnUse">
<stop stop-color="white"/>
<stop offset="0.17" stop-color="#CAD5D6"/>
<stop offset="0.39" stop-color="#8EA5A7"/>
<stop offset="0.59" stop-color="#5F8082"/>
<stop offset="0.76" stop-color="#3D6568"/>
<stop offset="0.9" stop-color="#285458"/>
<stop offset="1" stop-color="#214E52"/>
</linearGradient>
<linearGradient id="paint1_linear" x1="1.54845e+06" y1="1.41501e+06" x2="7.45435e+06" y2="7.57231e+06" gradientUnits="userSpaceOnUse">
<stop stop-color="white"/>
<stop offset="0.17" stop-color="#CAD5D6"/>
<stop offset="0.39" stop-color="#8EA5A7"/>
<stop offset="0.59" stop-color="#5F8082"/>
<stop offset="0.76" stop-color="#3D6568"/>
<stop offset="0.9" stop-color="#285458"/>
<stop offset="1" stop-color="#214E52"/>
</linearGradient>
<linearGradient id="paint2_linear" x1="266.42" y1="2260.62" x2="803.51" y2="1631.99" gradientUnits="userSpaceOnUse">
<stop stop-color="#E0E0E0"/>
<stop offset="0.17" stop-color="#DCE0E0"/>
<stop offset="0.34" stop-color="#D1E0E1"/>
<stop offset="0.5" stop-color="#BEDFE2"/>
<stop offset="0.66" stop-color="#A3DFE4"/>
<stop offset="0.82" stop-color="#80DEE6"/>
<stop offset="0.97" stop-color="#57DDE8"/>
<stop offset="1" stop-color="#4EDDE9"/>
</linearGradient>
<linearGradient id="paint3_linear" x1="-1611.68" y1="1.68559e+06" x2="253135" y2="1.37888e+06" gradientUnits="userSpaceOnUse">
<stop stop-color="#E0E0E0"/>
<stop offset="0.17" stop-color="#DCE0E0"/>
<stop offset="0.34" stop-color="#D1E0E1"/>
<stop offset="0.5" stop-color="#BEDFE2"/>
<stop offset="0.66" stop-color="#A3DFE4"/>
<stop offset="0.82" stop-color="#80DEE6"/>
<stop offset="0.97" stop-color="#57DDE8"/>
<stop offset="1" stop-color="#4EDDE9"/>
</linearGradient>
<linearGradient id="paint4_linear" x1="491.59" y1="2335.74" x2="1095.64" y2="1891.71" gradientUnits="userSpaceOnUse">
<stop stop-color="#E0E0E0"/>
<stop offset="0.15" stop-color="#D2E0E1"/>
<stop offset="0.43" stop-color="#ACDFE3"/>
<stop offset="0.81" stop-color="#6FDEE7"/>
<stop offset="1" stop-color="#4EDDE9"/>
</linearGradient>
</defs>
</svg>
