<svg width="504" height="504" viewBox="0 0 504 504" fill="none" xmlns="http://www.w3.org/2000/svg">
<path d="M243.4 16.88L232.4 62.16C212.556 64.2107 193.158 69.3739 174.92 77.46L142.92 43.57C139.219 39.8291 134.299 37.539 129.053 37.1152C123.808 36.6913 118.584 38.1619 114.33 41.26L85.0501 63.62C80.9426 66.9095 78.1503 71.5624 77.1797 76.7344C76.2092 81.9065 77.1246 87.2552 79.7601 91.81L104.01 131.61C91.4194 147.058 81.3546 164.403 74.19 183L27.5801 181.67C22.3147 181.64 17.2131 183.499 13.202 186.91C9.1908 190.322 6.53608 195.058 5.72002 200.26L0.860159 236.77C0.280065 242.001 1.5945 247.267 4.56499 251.612C7.53549 255.956 11.9651 259.092 17.0501 260.45L62.3401 271.45C64.3536 291.292 69.5009 310.69 77.5901 328.92L43.71 360.92C35.99 368.21 34.9799 381.07 41.3799 389.51L63.7 418.76C66.9956 422.877 71.6572 425.677 76.8397 426.653C82.0222 427.629 87.3827 426.716 91.95 424.08L131.75 399.8C147.214 412.417 164.584 422.5 183.21 429.67L181.83 476.25C181.52 486.86 189.9 496.69 200.45 498.11L236.92 503C242.153 503.581 247.421 502.27 251.772 499.304C256.122 496.338 259.268 491.913 260.64 486.83L271.58 441.52C291.403 439.497 310.782 434.353 329 426.28L361.06 460.2C364.751 463.948 369.668 466.243 374.912 466.665C380.156 467.088 385.377 465.609 389.62 462.5L418.9 440.14C427.35 433.69 429.67 421 424.19 411.96L400 372.14C412.618 356.687 422.701 339.327 429.87 320.71L476.47 322.04C481.729 322.066 486.823 320.207 490.83 316.801C494.836 313.394 497.49 308.665 498.31 303.47L503.2 266.95C503.78 261.718 502.464 256.451 499.491 252.106C496.519 247.761 492.087 244.626 487 243.27L441.69 232.27C439.676 212.427 434.525 193.029 426.43 174.8L460.31 142.8C464.054 139.101 466.348 134.183 466.775 128.937C467.203 123.691 465.736 118.466 462.64 114.21L440.29 85C436.999 80.885 432.341 78.0877 427.162 77.1169C421.983 76.1461 416.628 77.0663 412.07 79.71L372.27 103.95C356.821 91.3163 339.47 81.2078 320.86 74L322.19 27.44C322.22 22.1732 320.359 17.0704 316.946 13.059C313.533 9.04766 308.794 6.39391 303.59 5.58001L267.11 0.680011C261.873 0.0927979 256.599 1.4051 252.247 4.37818C247.896 7.35126 244.757 11.7876 243.4 16.88V16.88Z" fill="url(#paint0_radial)"/>
<path style="mix-blend-mode:multiply" d="M347.68 251.86C347.676 232.942 342.063 214.45 331.55 198.722C321.037 182.994 306.097 170.736 288.618 163.498C271.139 156.26 251.907 154.367 233.353 158.059C214.798 161.751 197.755 170.861 184.378 184.238C171.001 197.615 161.891 214.658 158.199 233.213C154.507 251.767 156.4 271 163.638 288.478C170.876 305.957 183.133 320.897 198.862 331.41C214.59 341.923 233.082 347.536 252 347.54C264.566 347.543 277.008 345.07 288.618 340.262C300.228 335.455 310.777 328.407 319.662 319.522C328.547 310.637 335.595 300.088 340.402 288.478C345.209 276.869 347.682 264.426 347.68 251.86Z" fill="url(#paint1_radial)"/>
<path style="mix-blend-mode:multiply" d="M298.69 268.19L341.1 293.86C342.787 294.913 344.676 295.603 346.645 295.885C348.614 296.167 350.62 296.035 352.536 295.498C354.451 294.96 356.233 294.029 357.768 292.764C359.303 291.499 360.557 289.927 361.45 288.15C361.45 288.15 373.36 265.15 365.07 227.15C354.56 178.97 332.52 166.33 332.52 166.33C328.925 164.331 324.698 163.793 320.717 164.828C316.735 165.863 313.305 168.392 311.14 171.89L285 215C292.284 221.52 297.472 230.052 299.908 239.52C302.345 248.987 301.921 258.964 298.69 268.19V268.19ZM290.56 140.85C290.56 140.85 269.13 127.2 221.56 140.21C184.06 150.48 169.15 171.72 169.15 171.72C167.996 173.334 167.19 175.172 166.785 177.114C166.379 179.057 166.383 181.063 166.795 183.004C167.207 184.946 168.018 186.78 169.178 188.391C170.338 190.002 171.82 191.353 173.53 192.36L215.94 218.07C222.618 210.94 231.26 205.949 240.772 203.726C250.285 201.503 260.243 202.148 269.39 205.58L295.56 162.38C297.656 158.837 298.306 154.623 297.375 150.613C296.444 146.603 294.003 143.106 290.56 140.85V140.85ZM330.56 311.38L288.14 285.68C281.454 292.805 272.808 297.791 263.292 300.008C253.776 302.226 243.817 301.576 234.67 298.14L208.55 341.36C206.437 344.897 205.777 349.115 206.709 353.128C207.642 357.142 210.094 360.637 213.55 362.88C213.55 362.88 234.93 376.53 282.55 363.52C320.07 353.27 334.94 332.02 334.94 332.02C336.101 330.407 336.911 328.569 337.32 326.623C337.728 324.678 337.725 322.669 337.31 320.726C336.896 318.782 336.08 316.946 334.914 315.337C333.748 313.727 332.258 312.379 330.54 311.38H330.56ZM205.37 235.54L162.91 209.86C161.226 208.811 159.341 208.125 157.377 207.844C155.413 207.563 153.412 207.695 151.501 208.23C149.591 208.765 147.813 209.693 146.28 210.953C144.747 212.213 143.494 213.779 142.6 215.55C142.6 215.55 130.7 238.63 138.99 276.62C149.49 324.82 171.54 337.44 171.54 337.44C175.124 339.457 179.351 340.007 183.332 338.974C187.313 337.941 190.739 335.405 192.89 331.9L219 288.69C211.734 282.166 206.561 273.638 204.132 264.181C201.703 254.723 202.127 244.757 205.35 235.54H205.37Z" fill="url(#paint2_radial)"/>
<path d="M252 398.51C171.14 398.51 105.39 332.73 105.39 251.87C105.39 171.01 171.13 105.23 252 105.23C332.87 105.23 398.65 171 398.65 251.87C398.65 332.74 332.85 398.51 252 398.51ZM252 124.51C181.82 124.51 124.68 181.65 124.68 251.86C124.68 322.07 181.81 379.22 252 379.22C322.19 379.22 379.39 322.08 379.39 251.87C379.39 181.66 322.25 124.52 252 124.52V124.51Z" fill="white"/>
<path style="mix-blend-mode:multiply" d="M487 243.27L441.69 232.27C439.676 212.427 434.525 193.029 426.43 174.8L460.31 142.8C464.054 139.101 466.348 134.183 466.775 128.937C467.203 123.691 465.735 118.466 462.64 114.21L440.29 85C436.999 80.885 432.341 78.0877 427.162 77.1169C421.983 76.1461 416.628 77.0663 412.07 79.71L372.27 103.95C356.821 91.3163 339.47 81.2078 320.86 74L322.19 27.44C322.22 22.1731 320.359 17.0704 316.946 13.059C313.533 9.04764 308.794 6.39388 303.59 5.57998L267.11 0.679983C261.876 0.0918138 256.604 1.4013 252.253 4.37043C247.902 7.33956 244.76 11.7712 243.4 16.86L232.4 62.14C212.555 64.1906 193.158 69.3539 174.92 77.44L142.92 43.55C139.218 39.8091 134.299 37.519 129.053 37.0951C123.808 36.6713 118.584 38.1419 114.33 41.24L85.05 63.6C80.9425 66.8895 78.1503 71.5423 77.1797 76.7144C76.2091 81.8865 77.1245 87.2351 79.76 91.79L104 131.6C91.4135 147.053 81.3522 164.401 74.1899 183L27.5801 181.66C22.3147 181.63 17.2131 183.489 13.2019 186.9C9.19075 190.312 6.53604 195.048 5.71997 200.25L0.860111 236.75C0.27028 241.98 1.58113 247.248 4.55347 251.592C7.52581 255.936 11.9613 259.065 17.0501 260.41L62.3401 271.41C64.3562 291.255 69.5033 310.656 77.5901 328.89L43.71 360.89C35.99 368.17 34.9799 381.03 41.3799 389.47L63.7 418.72C66.9941 422.839 71.6551 425.641 76.8376 426.619C82.0202 427.596 87.3815 426.685 91.95 424.05L131.75 399.77C147.217 412.381 164.586 422.459 183.21 429.63L181.83 476.22C181.803 481.488 183.668 486.591 187.085 490.6C190.502 494.61 195.244 497.261 200.45 498.07L236.92 502.96C242.153 503.541 247.421 502.23 251.772 499.264C256.122 496.298 259.268 491.873 260.64 486.79L271.58 441.48C291.4 439.468 310.778 434.342 329 426.29L361.06 460.2C368.31 467.92 381.18 468.96 389.62 462.51L418.9 440.14C427.35 433.7 429.67 421 424.19 411.96L400 372.14C412.616 356.689 422.698 339.333 429.87 320.72L476.47 322.04C481.729 322.066 486.823 320.207 490.83 316.801C494.836 313.394 497.49 308.665 498.31 303.47L503.2 266.95C503.78 261.718 502.464 256.451 499.491 252.106C496.519 247.761 492.087 244.626 487 243.27V243.27Z" fill="url(#paint3_linear)"/>
<path style="mix-blend-mode:multiply" d="M499.55 252.2L482.55 242.2L441.66 232.26C441.147 227.02 440.397 221.843 439.41 216.73L192.23 70.89C186.37 72.89 180.55 74.97 174.94 77.46L142.94 43.57C139.238 39.8292 134.319 37.539 129.073 37.1152C123.828 36.6914 118.604 38.1619 114.35 41.26L85.0701 63.62C80.9626 66.9095 78.17 71.5624 77.1995 76.7345C76.2289 81.9065 77.1445 87.2552 79.78 91.81L90.1799 108.81L450.72 321.27L476.43 322C481.689 322.026 486.783 320.167 490.79 316.761C494.797 313.354 497.45 308.625 498.27 303.43L503.16 266.91C503.796 261.73 502.512 256.497 499.55 252.2V252.2ZM412.44 392.63L56.54 182.52L27.54 181.69C19.06 181.45 11.09 186.81 7.54004 194.35L420.79 438.35C427.6 431.55 429.28 420.26 424.2 411.94L412.44 392.63ZM104.04 131.63C93.0115 145.265 83.9251 160.362 77.04 176.49L402.74 368.49C413.962 354.081 423.03 338.117 429.66 321.1L101.76 127.83L104.04 131.63Z" fill="url(#paint4_linear)"/>
<defs>
<radialGradient id="paint0_radial" cx="0" cy="0" r="1" gradientUnits="userSpaceOnUse" gradientTransform="translate(252.02 251.86) scale(251.34)">
<stop stop-color="#184A50"/>
<stop offset="0.36" stop-color="#194C52"/>
<stop offset="0.54" stop-color="#1D545A"/>
<stop offset="0.68" stop-color="#236167"/>
<stop offset="0.81" stop-color="#2D737A"/>
<stop offset="0.92" stop-color="#388B93"/>
<stop offset="1" stop-color="#44A2AB"/>
</radialGradient>
<radialGradient id="paint1_radial" cx="0" cy="0" r="1" gradientUnits="userSpaceOnUse" gradientTransform="translate(252.02 251.87) scale(95.66)">
<stop stop-color="white"/>
<stop offset="0.4" stop-color="#FDFDFD"/>
<stop offset="0.6" stop-color="#F5F5F5"/>
<stop offset="0.76" stop-color="#E8E8E8"/>
<stop offset="0.89" stop-color="#D5D5D5"/>
<stop offset="1" stop-color="#BFBFBF"/>
</radialGradient>
<radialGradient id="paint2_radial" cx="0" cy="0" r="1" gradientUnits="userSpaceOnUse" gradientTransform="translate(252.02 251.87) scale(116.63)">
<stop offset="0.38" stop-color="#194C52"/>
<stop offset="0.44" stop-color="#3A666B"/>
<stop offset="0.6" stop-color="#809C9F"/>
<stop offset="0.73" stop-color="#B6C6C8"/>
<stop offset="0.85" stop-color="#DEE5E6"/>
<stop offset="0.94" stop-color="#F6F8F8"/>
<stop offset="1" stop-color="white"/>
</radialGradient>
<linearGradient id="paint3_linear" x1="1.4596e+06" y1="355853" x2="1.4596e+06" y2="231330" gradientUnits="userSpaceOnUse">
<stop stop-color="#00EDFF"/>
<stop offset="0.19" stop-color="#03EDFF"/>
<stop offset="0.33" stop-color="#0CEEFF"/>
<stop offset="0.44" stop-color="#1BEFFF"/>
<stop offset="0.55" stop-color="#31F0FF"/>
<stop offset="0.65" stop-color="#4DF2FF"/>
<stop offset="0.74" stop-color="#70F5FF"/>
<stop offset="0.83" stop-color="#99F8FF"/>
<stop offset="0.92" stop-color="#C8FBFF"/>
<stop offset="1" stop-color="white"/>
</linearGradient>
<linearGradient id="paint4_linear" x1="-116.02" y1="23.9" x2="375.98" y2="291.61" gradientUnits="userSpaceOnUse">
<stop stop-color="#9DB3B6"/>
<stop offset="0.28" stop-color="#A0B5B8"/>
<stop offset="0.46" stop-color="#A9BCBF"/>
<stop offset="0.63" stop-color="#B8C8CA"/>
<stop offset="0.78" stop-color="#CED9DA"/>
<stop offset="0.91" stop-color="#EAEEEF"/>
<stop offset="1" stop-color="white"/>
</linearGradient>
</defs>
</svg>
