<svg width="712" height="712" viewBox="0 0 712 712" fill="none" xmlns="http://www.w3.org/2000/svg">
<path d="M396.69 19.3801C396.019 14.1568 393.496 9.34756 389.58 5.82623C385.664 2.3049 380.615 0.305079 375.35 0.190063H336.21C330.95 0.312164 325.908 2.31519 321.999 5.83588C318.089 9.35656 315.57 14.1618 314.9 19.3801L311.39 52.8501C310.28 63.4001 300.92 73.8501 290.56 76.0901C280.2 78.3301 248.98 79.7901 242.74 71.2201L223 44.0001C219.823 39.8138 215.247 36.9095 210.107 35.8172C204.966 34.7249 199.605 35.5174 195 38.05L161 57.6401C156.512 60.3802 153.154 64.6371 151.534 69.6396C149.915 74.6422 150.14 80.0595 152.17 84.9101L165.82 115.64C170.15 125.35 167.31 139.05 159.52 146.1C151.73 153.15 125.31 170.18 115.6 165.88L84.8701 152.19C80.0139 150.165 74.5923 149.947 69.5891 151.576C64.5859 153.205 60.3325 156.573 57.6001 161.07L38 194.94C32.74 204.14 35.4 216.77 44 223L71.2 242.77C79.78 249.02 84.2 262.24 80.98 272.18C77.76 282.12 63.4501 310.28 52.8601 311.41L19.4199 314.93C14.1962 315.594 9.38395 318.11 5.85718 322.02C2.33041 325.93 0.323078 330.976 0.199951 336.24V375.36C0.320716 380.626 2.32702 385.674 5.854 389.586C9.38099 393.499 14.1945 396.016 19.4199 396.68L52.8601 400.21C63.4501 401.3 73.8601 410.68 76.1101 421.03C78.3601 431.38 79.81 462.59 71.2 468.86L44 488.62C39.8224 491.803 36.9212 496.375 35.8208 501.51C34.7204 506.646 35.4934 512.005 38 516.62L57.5601 550.51C60.2823 555.017 64.5366 558.393 69.5444 560.02C74.5522 561.647 79.9786 561.417 84.8301 559.37L115.56 545.7C125.27 541.39 138.97 544.23 146.08 552.04C153.19 559.85 170.08 586.26 165.81 595.97L152.14 626.68C147.8 636.36 151.82 648.62 160.96 653.97L194.87 673.51C199.479 676.042 204.846 676.829 209.988 675.727C215.13 674.625 219.703 671.708 222.87 667.51L242.65 640.31C248.89 631.72 262.13 627.31 272.09 630.53C282.05 633.75 310.19 648.15 311.3 658.7L314.81 692.14C315.485 697.355 318.005 702.155 321.915 705.672C325.824 709.188 330.863 711.189 336.12 711.31H375.26C380.52 711.193 385.564 709.195 389.478 705.678C393.391 702.161 395.915 697.358 396.59 692.14L400.1 658.7C401.22 648.15 410.56 637.7 420.92 635.42C431.28 633.14 462.51 631.72 468.75 640.31L488.54 667.51C494.73 676.11 507.39 678.78 516.54 673.51L550.41 653.97C554.909 651.235 558.279 646.978 559.907 641.97C561.534 636.963 561.312 631.538 559.28 626.68L545.7 596C541.4 586.29 544.26 572.57 552.05 565.51C559.84 558.45 586.27 541.42 595.97 545.73L626.69 559.4C636.41 563.72 648.69 559.76 653.98 550.54L673.5 516.65C676.041 512.049 676.84 506.687 675.751 501.545C674.662 496.403 671.758 491.826 667.57 488.65L640.4 468.89C631.81 462.65 627.4 449.38 630.61 439.46C633.82 429.54 648.21 401.33 658.75 400.24L692.22 396.71C697.44 396.039 702.246 393.519 705.767 389.608C709.288 385.696 711.29 380.652 711.41 375.39V336.24C711.288 330.98 709.285 325.938 705.764 322.029C702.243 318.119 697.438 315.601 692.22 314.93L658.75 311.41C648.21 310.28 637.75 300.93 635.51 290.57C633.27 280.21 631.81 249 640.4 242.76L667.57 223C671.766 219.817 674.675 215.228 675.764 210.075C676.853 204.922 676.049 199.549 673.5 194.94L654 161.05C648.72 151.87 636.43 147.89 626.71 152.19L596 165.87C586.3 170.18 572.61 167.34 565.5 159.56C558.39 151.78 541.43 125.34 545.73 115.64L559.42 84.9101C561.449 80.0537 561.67 74.6309 560.043 69.6256C558.415 64.6203 555.047 60.3644 550.55 57.6301L516.65 38.0001C507.48 32.7001 494.82 35.3801 488.65 44.0001L468.86 71.2001C462.62 79.7701 449.37 84.2001 439.43 80.9701C429.49 77.7401 401.33 63.37 400.23 52.83L396.69 19.3801Z" fill="url(#paint0_radial)"/>
<path style="mix-blend-mode:multiply" d="M585.12 355.81C585.12 229.19 482.44 126.49 355.82 126.49C229.2 126.49 126.5 229.19 126.5 355.81C126.5 482.43 229.16 585.08 355.82 585.08C482.48 585.08 585.12 482.46 585.12 355.81Z" fill="url(#paint1_radial)"/>
<path style="mix-blend-mode:multiply" d="M692.22 314.93L658.75 311.41C648.21 310.28 637.75 300.93 635.51 290.57C633.27 280.21 631.81 249 640.4 242.76L667.57 223C671.766 219.817 674.675 215.228 675.764 210.075C676.853 204.922 676.049 199.549 673.5 194.94L654 161.05C648.72 151.87 636.43 147.89 626.71 152.19L596 165.87C586.3 170.18 572.61 167.34 565.5 159.56C558.39 151.78 541.43 125.34 545.73 115.64L559.42 84.91C561.449 80.0537 561.67 74.6309 560.043 69.6256C558.415 64.6203 555.047 60.3643 550.55 57.63L516.65 38C507.48 32.7 494.82 35.38 488.65 44L468.86 71.2C462.62 79.77 449.37 84.2 439.43 80.97C429.49 77.74 401.33 63.37 400.23 52.83L396.71 19.36C396.039 14.1367 393.516 9.32754 389.6 5.80621C385.684 2.28488 380.635 0.28506 375.37 0.170044H336.23C330.97 0.292144 325.928 2.29514 322.019 5.81583C318.109 9.33651 315.591 14.1417 314.92 19.36L311.41 52.83C310.3 63.38 300.94 73.83 290.58 76.07C280.22 78.31 249 79.77 242.76 71.2L223 44C219.823 39.8138 215.247 36.9095 210.107 35.8172C204.966 34.7248 199.605 35.5173 195 38.05L161 57.64C156.512 60.3802 153.154 64.6371 151.534 69.6396C149.915 74.6422 150.14 80.0594 152.17 84.91L165.82 115.64C170.15 125.35 167.31 139.05 159.52 146.1C151.73 153.15 125.31 170.18 115.6 165.88L84.8701 152.19C80.0139 150.165 74.5923 149.947 69.5891 151.576C64.5859 153.205 60.3325 156.573 57.6001 161.07L38 194.94C32.74 204.14 35.4 216.77 44 223L71.2 242.77C79.78 249.02 84.2 262.24 80.98 272.18C77.76 282.12 63.4501 310.28 52.8601 311.41L19.4199 314.93C14.1962 315.594 9.38395 318.11 5.85718 322.02C2.33041 325.93 0.323078 330.976 0.199951 336.24V375.36C0.320716 380.626 2.32702 385.674 5.854 389.586C9.38099 393.499 14.1945 396.016 19.4199 396.68L52.8601 400.21C63.4501 401.3 73.8601 410.68 76.1101 421.03C78.3601 431.38 79.81 462.59 71.2 468.86L44 488.62C39.8224 491.803 36.9212 496.375 35.8208 501.51C34.7204 506.645 35.4934 512.005 38 516.62L57.5601 550.51C60.2823 555.017 64.5366 558.393 69.5444 560.02C74.5522 561.647 79.9786 561.416 84.8301 559.37L115.56 545.7C125.27 541.39 138.97 544.23 146.08 552.04C153.19 559.85 170.08 586.26 165.81 595.97L152.14 626.68C147.8 636.36 151.82 648.62 160.96 653.97L194.87 673.51C199.479 676.042 204.846 676.829 209.988 675.727C215.13 674.625 219.703 671.708 222.87 667.51L242.65 640.31C248.89 631.72 262.13 627.31 272.09 630.53C282.05 633.75 310.19 648.15 311.3 658.7L314.81 692.14C315.485 697.355 318.005 702.155 321.915 705.672C325.824 709.188 330.863 711.189 336.12 711.31H375.26C380.52 711.193 385.564 709.195 389.478 705.678C393.391 702.161 395.915 697.358 396.59 692.14L400.1 658.7C401.22 648.15 410.56 637.7 420.92 635.42C431.28 633.14 462.51 631.72 468.75 640.31L488.54 667.51C494.73 676.11 507.39 678.78 516.54 673.51L550.41 653.97C554.909 651.235 558.279 646.978 559.907 641.97C561.534 636.963 561.312 631.538 559.28 626.68L545.7 596C541.4 586.29 544.26 572.57 552.05 565.51C559.84 558.45 586.27 541.42 595.97 545.73L626.69 559.4C636.41 563.72 648.69 559.76 653.98 550.54L673.5 516.65C676.041 512.049 676.84 506.687 675.751 501.545C674.662 496.403 671.758 491.826 667.57 488.65L640.4 468.89C631.81 462.65 627.4 449.38 630.61 439.46C633.82 429.54 648.21 401.33 658.75 400.24L692.22 396.71C697.44 396.039 702.246 393.519 705.767 389.608C709.288 385.696 711.29 380.652 711.41 375.39V336.24C711.288 330.98 709.285 325.938 705.764 322.029C702.243 318.119 697.438 315.601 692.22 314.93ZM355.82 562.31C241.73 562.31 149.29 469.88 149.29 355.81C149.29 241.74 241.73 149.28 355.82 149.28C469.91 149.28 562.32 241.75 562.32 355.81C562.32 469.87 469.85 562.31 355.82 562.31V562.31Z" fill="url(#paint2_radial)"/>
<path d="M480.53 355.81C480.536 331.143 473.227 307.029 459.527 286.517C445.828 266.004 426.353 250.015 403.565 240.572C380.778 231.128 355.702 228.654 331.509 233.463C307.316 238.271 285.091 250.146 267.647 267.586C250.203 285.026 238.323 307.247 233.509 331.439C228.694 355.631 231.162 380.708 240.6 403.498C250.038 426.287 266.023 445.766 286.532 459.471C307.041 473.175 331.154 480.49 355.82 480.49C388.887 480.479 420.597 467.341 443.981 443.962C467.366 420.583 480.512 388.877 480.53 355.81V355.81Z" fill="#F5F5F5"/>
<path style="mix-blend-mode:multiply" d="M692.22 314.93L658.75 311.41C648.21 310.28 637.75 300.93 635.51 290.57C633.27 280.21 631.81 249 640.4 242.76L667.57 223C671.766 219.817 674.675 215.228 675.764 210.075C676.853 204.922 676.049 199.549 673.5 194.94L654 161.05C648.72 151.87 636.43 147.89 626.71 152.19L596 165.87C586.3 170.18 572.61 167.34 565.5 159.56C558.39 151.78 541.43 125.34 545.73 115.64L559.42 84.91C561.449 80.0537 561.67 74.6309 560.043 69.6256C558.415 64.6203 555.047 60.3643 550.55 57.63L516.65 38C507.48 32.7 494.82 35.38 488.65 44L468.86 71.2C462.62 79.77 449.37 84.2 439.43 80.97C429.49 77.74 401.33 63.37 400.23 52.83L396.71 19.36C396.039 14.1367 393.516 9.32754 389.6 5.80621C385.684 2.28488 380.635 0.28506 375.37 0.170044H336.23C330.97 0.292144 325.928 2.29514 322.019 5.81583C318.109 9.33651 315.591 14.1417 314.92 19.36L311.41 52.83C310.3 63.38 300.94 73.83 290.58 76.07C280.22 78.31 249 79.77 242.76 71.2L223 44C219.823 39.8138 215.247 36.9095 210.107 35.8172C204.966 34.7248 199.605 35.5173 195 38.05L161 57.64C156.512 60.3802 153.154 64.6371 151.534 69.6396C149.915 74.6422 150.14 80.0594 152.17 84.91L165.82 115.64C170.15 125.35 167.31 139.05 159.52 146.1C151.73 153.15 125.31 170.18 115.6 165.88L84.8701 152.19C80.0139 150.165 74.5923 149.947 69.5891 151.576C64.5859 153.205 60.3325 156.573 57.6001 161.07L38 194.94C32.74 204.14 35.4 216.77 44 223L71.2 242.77C79.78 249.02 84.2 262.24 80.98 272.18C77.76 282.12 63.4501 310.28 52.8601 311.41L19.4199 314.93C14.1962 315.594 9.38395 318.11 5.85718 322.02C2.33041 325.93 0.323078 330.976 0.199951 336.24V375.36C0.320716 380.626 2.32702 385.674 5.854 389.586C9.38099 393.499 14.1945 396.016 19.4199 396.68L52.8601 400.21C63.4501 401.3 73.8601 410.68 76.1101 421.03C78.3601 431.38 79.81 462.59 71.2 468.86L44 488.62C39.8224 491.803 36.9212 496.375 35.8208 501.51C34.7204 506.645 35.4934 512.005 38 516.62L57.5601 550.51C60.2823 555.017 64.5366 558.393 69.5444 560.02C74.5522 561.647 79.9786 561.416 84.8301 559.37L115.56 545.7C125.27 541.39 138.97 544.23 146.08 552.04C153.19 559.85 170.08 586.26 165.81 595.97L152.14 626.68C147.8 636.36 151.82 648.62 160.96 653.97L194.87 673.51C199.479 676.042 204.846 676.829 209.988 675.727C215.13 674.625 219.703 671.708 222.87 667.51L242.65 640.31C248.89 631.72 262.13 627.31 272.09 630.53C282.05 633.75 310.19 648.15 311.3 658.7L314.81 692.14C315.485 697.355 318.005 702.155 321.915 705.672C325.824 709.188 330.863 711.189 336.12 711.31H375.26C380.52 711.193 385.564 709.195 389.478 705.678C393.391 702.161 395.915 697.358 396.59 692.14L400.1 658.7C401.22 648.15 410.56 637.7 420.92 635.42C431.28 633.14 462.51 631.72 468.75 640.31L488.54 667.51C494.73 676.11 507.39 678.78 516.54 673.51L550.41 653.97C554.909 651.235 558.279 646.978 559.907 641.97C561.534 636.963 561.312 631.538 559.28 626.68L545.7 596C541.4 586.29 544.26 572.57 552.05 565.51C559.84 558.45 586.27 541.42 595.97 545.73L626.69 559.4C636.41 563.72 648.69 559.76 653.98 550.54L673.5 516.65C676.041 512.049 676.84 506.687 675.751 501.545C674.662 496.403 671.758 491.826 667.57 488.65L640.4 468.89C631.81 462.65 627.4 449.38 630.61 439.46C633.82 429.54 648.21 401.33 658.75 400.24L692.22 396.71C697.44 396.039 702.246 393.519 705.767 389.608C709.288 385.696 711.29 380.652 711.41 375.39V336.24C711.288 330.98 709.285 325.938 705.764 322.029C702.243 318.119 697.438 315.601 692.22 314.93Z" fill="url(#paint3_linear)"/>
<path d="M462.35 356.85C462.87 299.32 415.57 252.28 356.85 251.77C297.93 251.21 249.85 297.37 249.26 354.89C248.67 412.41 296 459.27 354.93 459.82C413.86 460.37 461.79 414.25 462.35 356.85Z" fill="url(#paint4_linear)"/>
<g style="mix-blend-mode:multiply" opacity="0.8">
<g style="mix-blend-mode:multiply" opacity="0.8">
<path d="M462.24 358.86C462.24 358.16 462.35 357.45 462.35 356.86C462.35 356.27 462.35 355.44 462.35 354.79L440 354.57C439.857 348.732 439.11 342.924 437.77 337.24L459.5 331.87C459.07 330.51 458.81 329.19 458.4 327.87L436.79 333.34C435.168 327.711 432.945 322.273 430.16 317.12L449.61 306.39C448.99 305.26 448.23 304.15 447.5 302.94L428 313.71C425.001 308.69 421.442 304.026 417.39 299.81L433.27 284.52C432.27 283.52 431.27 282.52 430.34 281.6L414.39 296.85C410.07 292.828 405.36 289.247 400.33 286.16L411.69 267.38C410.4 266.67 409.38 265.92 408.13 265.23L396.78 284C391.53 281.162 385.992 278.893 380.26 277.23L386.35 256.23C384.9 255.86 383.54 255.52 382.35 255.16L376.28 276.21C370.514 274.788 364.615 273.973 358.68 273.78L358.87 251.94C358.21 251.94 357.5 251.77 356.87 251.77C356.09 251.77 355.42 251.91 354.76 251.91L354.52 273.72C348.565 273.813 342.636 274.53 336.83 275.86L331.25 254.7C329.92 255.05 328.47 255.32 327.25 255.7L332.72 276.88C327.004 278.427 321.473 280.587 316.22 283.32L305.15 264.32C304.08 264.99 302.88 265.68 301.62 266.39L312.72 285.39C307.568 288.336 302.759 291.844 298.38 295.85L282.72 280.24C281.72 281.16 280.72 282.16 279.65 283.11L295.42 298.65C291.282 302.832 287.595 307.437 284.42 312.39L265.15 301.39C264.47 302.55 263.69 303.68 262.9 304.79L282.25 315.88C279.307 320.956 276.977 326.364 275.31 331.99L253.77 326C253.31 327.26 253.02 328.57 252.65 329.91L274.28 335.72C272.786 341.359 271.934 347.149 271.74 352.98L249.37 352.77C249.37 353.43 249.29 354.08 249.26 354.86C249.26 355.47 249.37 356.14 249.33 356.86L271.7 357.05C271.796 362.859 272.507 368.641 273.82 374.3L252.19 379.72C252.57 381.09 252.83 382.36 253.19 383.64L274.81 378.28C276.397 383.903 278.618 389.328 281.43 394.45L262 405.24C262.74 406.41 263.45 407.51 264.11 408.66L283.61 397.94C286.686 402.983 290.301 407.677 294.39 411.94L278.31 427.18C279.31 428.18 280.31 429.18 281.31 430.01L297.25 414.79C301.573 418.867 306.316 422.474 311.4 425.55L300 444.31C301.2 444.98 302.39 445.71 303.5 446.4L314.88 427.66C320.111 430.476 325.621 432.741 331.32 434.42L325.4 455.42C326.61 455.82 327.99 456.08 329.4 456.49L335.4 435.49C341.2 436.915 347.131 437.737 353.1 437.94L352.85 459.69C353.51 459.69 354.23 459.8 354.99 459.85C355.75 459.9 356.31 459.72 356.99 459.69L357.15 437.94C363.114 437.871 369.054 437.17 374.87 435.85L380.56 456.95C381.74 456.58 383.12 456.35 384.56 455.95L378.85 434.88C384.589 433.327 390.147 431.168 395.43 428.44L406.49 447.33C407.72 446.67 408.75 445.93 410.05 445.33L399.05 426.33C404.178 423.364 408.966 419.846 413.33 415.84L429 431.37C430 430.49 431 429.5 431.94 428.57L416.28 413C420.413 408.81 424.1 404.202 427.28 399.25L446.51 410.39C447.272 409.287 447.977 408.146 448.62 406.97L429.39 395.82C432.342 390.779 434.691 385.409 436.39 379.82L457.88 385.58C458.29 384.35 458.66 383.05 459.05 381.7L437.48 375.8C438.899 370.191 439.737 364.451 439.98 358.67L462.24 358.86ZM355.24 432.31C311.83 431.93 277.1 397.31 277.48 355.18C277.88 312.79 313.26 278.92 356.63 279.3C399.8 279.71 434.63 314.23 434.18 356.61C433.77 398.8 398.35 432.7 355.21 432.31H355.24Z" fill="#FFDA00"/>
</g>
<g style="mix-blend-mode:multiply" opacity="0.8">
<path d="M383.58 355C380.43 351.68 373.58 348.54 363.19 345.73L362.37 345.52L362.55 328.52C364.875 328.757 367.149 329.354 369.29 330.29C372.528 331.612 375.525 333.46 378.16 335.76L386.29 317.93C382.312 315.176 377.925 313.067 373.29 311.68C369.85 310.689 366.319 310.046 362.75 309.76L362.87 296.23L352.79 296.11L352.64 309.91C346.166 310.524 340.061 313.198 335.22 317.54C329.22 323.03 326.05 330.13 326.02 338.84C325.91 345.63 327.81 350.91 331.58 354.89C335.35 358.87 341.82 361.96 350.96 364.48C351.338 364.629 351.73 364.739 352.13 364.81L351.97 385.73C349.082 385.323 346.303 384.351 343.79 382.87C339.607 380.315 335.843 377.131 332.63 373.43L320.87 391.83C325.332 396.193 330.559 399.698 336.29 402.17C341.224 404.121 346.457 405.203 351.76 405.37L351.7 415.67L361.77 415.77L361.84 405.07C368.647 404.267 375.059 401.446 380.25 396.97C386.87 391.103 390.227 383.32 390.32 373.62C390.381 370.064 389.808 366.526 388.63 363.17C387.58 360.103 385.854 357.311 383.58 355V355ZM352.28 341.39C351.48 340.708 350.847 339.853 350.427 338.89C350.008 337.926 349.814 336.88 349.86 335.83C349.874 334.834 350.112 333.853 350.557 332.962C351.002 332.07 351.642 331.29 352.43 330.68L352.28 341.39ZM363.19 383.46C362.805 383.694 362.407 383.907 362 384.1L362.17 368.56C362.75 368.91 363.35 369.27 363.78 369.56C364.736 370.474 365.482 371.585 365.966 372.816C366.449 374.048 366.659 375.37 366.58 376.69C366.559 378.001 366.244 379.29 365.657 380.462C365.07 381.634 364.227 382.658 363.19 383.46V383.46Z" fill="#FFDA00"/>
</g>
</g>
<path style="mix-blend-mode:multiply" d="M167 54.1801L161 57.6401C156.512 60.3802 153.154 64.6371 151.534 69.6396C149.915 74.6422 150.14 80.0595 152.17 84.9101L165.82 115.64C170.15 125.35 167.31 139.05 159.52 146.1C151.73 153.15 125.31 170.18 115.6 165.88L95.2 156.78L674.76 498.32C673.356 494.449 670.846 491.076 667.54 488.62L640.37 468.86C631.78 462.62 627.37 449.35 630.58 439.43C633.79 429.51 648.18 401.3 658.72 400.21L692.19 396.68C697.407 396.01 702.21 393.493 705.731 389.585C709.251 385.678 711.255 380.638 711.38 375.38L167 54.1801Z" fill="url(#paint5_linear)"/>
<path style="mix-blend-mode:multiply" d="M545.7 596C541.4 586.29 544.26 572.57 552.05 565.51C552.26 565.32 552.63 565.03 552.86 564.84L76.1799 283.42C70.2399 295.42 60.5701 310.59 52.8501 311.42L26.51 314.19L560.29 629.38C560.059 628.471 559.758 627.582 559.39 626.72L545.7 596Z" fill="url(#paint6_linear)"/>
<path style="mix-blend-mode:multiply" d="M57.6298 161.07L38 194.94C32.74 204.14 35.4 216.77 44 223L71.1999 242.77C76.4899 246.61 80.1999 253.12 81.4799 259.87L574.74 550.67C583.06 546.5 591.37 543.67 595.98 545.73L626.7 559.4C636.42 563.72 648.7 559.76 653.99 550.54L673.51 516.65C673.694 516.399 673.832 516.118 673.92 515.82L62.49 155.44C60.5322 156.996 58.8836 158.906 57.6298 161.07V161.07Z" fill="url(#paint7_linear)"/>
<defs>
<radialGradient id="paint0_radial" cx="0" cy="0" r="1" gradientUnits="userSpaceOnUse" gradientTransform="translate(1.76295e+06 532480) scale(252913 252881)">
<stop stop-color="#225054"/>
<stop offset="1" stop-color="#225054"/>
</radialGradient>
<radialGradient id="paint1_radial" cx="0" cy="0" r="1" gradientUnits="userSpaceOnUse" gradientTransform="translate(355.81 355.79) scale(229.3)">
<stop stop-color="#BFBFBF"/>
<stop offset="0.23" stop-color="#C4C4C4"/>
<stop offset="0.5" stop-color="#D2D2D2"/>
<stop offset="0.79" stop-color="#E9E9E9"/>
<stop offset="1" stop-color="white"/>
</radialGradient>
<radialGradient id="paint2_radial" cx="0" cy="0" r="1" gradientUnits="userSpaceOnUse" gradientTransform="translate(355.8 355.79) scale(355.61)">
<stop stop-color="#808080"/>
<stop offset="0.26" stop-color="#838383"/>
<stop offset="0.42" stop-color="#8B8B8B"/>
<stop offset="0.55" stop-color="#999999"/>
<stop offset="0.66" stop-color="#AEAEAE"/>
<stop offset="0.77" stop-color="#C8C8C8"/>
<stop offset="0.86" stop-color="#E8E8E8"/>
<stop offset="0.92" stop-color="white"/>
</radialGradient>
<linearGradient id="paint3_linear" x1="1.76295e+06" y1="1.05467e+06" x2="1.76295e+06" y2="482971" gradientUnits="userSpaceOnUse">
<stop stop-color="#00EDFF"/>
<stop offset="0.19" stop-color="#03EDFF"/>
<stop offset="0.33" stop-color="#0CEEFF"/>
<stop offset="0.44" stop-color="#1BEFFF"/>
<stop offset="0.55" stop-color="#31F0FF"/>
<stop offset="0.65" stop-color="#4DF2FF"/>
<stop offset="0.74" stop-color="#70F5FF"/>
<stop offset="0.83" stop-color="#99F8FF"/>
<stop offset="0.92" stop-color="#C8FBFF"/>
<stop offset="1" stop-color="white"/>
</linearGradient>
<linearGradient id="paint4_linear" x1="356.996" y1="237.323" x2="353.96" y2="565.499" gradientUnits="userSpaceOnUse">
<stop stop-color="#F6F600"/>
<stop offset="1" stop-color="#E13933"/>
</linearGradient>
<linearGradient id="paint5_linear" x1="1.2299e+06" y1="152057" x2="1.49408e+06" y2="370970" gradientUnits="userSpaceOnUse">
<stop stop-color="#9DB3B6"/>
<stop offset="0.28" stop-color="#A0B5B8"/>
<stop offset="0.46" stop-color="#A9BCBF"/>
<stop offset="0.63" stop-color="#B8C8CA"/>
<stop offset="0.78" stop-color="#CED9DA"/>
<stop offset="0.91" stop-color="#EAEEEF"/>
<stop offset="1" stop-color="white"/>
</linearGradient>
<linearGradient id="paint6_linear" x1="1.00866e+06" y1="180210" x2="1.21739e+06" y2="372568" gradientUnits="userSpaceOnUse">
<stop stop-color="#9DB3B6"/>
<stop offset="0.28" stop-color="#A0B5B8"/>
<stop offset="0.46" stop-color="#A9BCBF"/>
<stop offset="0.63" stop-color="#B8C8CA"/>
<stop offset="0.78" stop-color="#CED9DA"/>
<stop offset="0.91" stop-color="#EAEEEF"/>
<stop offset="1" stop-color="white"/>
</linearGradient>
<linearGradient id="paint7_linear" x1="1.23608e+06" y1="179994" x2="1.48121e+06" y2="410455" gradientUnits="userSpaceOnUse">
<stop stop-color="#9DB3B6"/>
<stop offset="0.28" stop-color="#A0B5B8"/>
<stop offset="0.46" stop-color="#A9BCBF"/>
<stop offset="0.63" stop-color="#B8C8CA"/>
<stop offset="0.78" stop-color="#CED9DA"/>
<stop offset="0.91" stop-color="#EAEEEF"/>
<stop offset="1" stop-color="white"/>
</linearGradient>
</defs>
</svg>
