<svg width="3600" height="2250" viewBox="0 0 3600 2250" fill="none" xmlns="http://www.w3.org/2000/svg">
<path d="M3600 0H0V2250H3600V0Z" fill="white"/>
<path d="M1758.4 810C1955 1114.58 2879.05 179.64 3600 455.46V0H2285C2058.76 171.39 1599.07 563.15 1758.4 810Z" fill="url(#paint0_linear)"/>
<path style="mix-blend-mode:multiply" d="M3045.59 944.78C3321.81 133.86 2331 30 1874.66 529.48C1418.32 1028.96 1950.57 1314.39 1964.85 1764.96C1972.66 2011.11 1764.85 2162.96 1574.69 2249.96H3071C3589 1454.65 2789.52 1696.54 3045.59 944.78Z" fill="url(#paint1_linear)"/>
<path d="M1356.9 750.08C1465.36 413.67 1748.7 168.78 1987.9 0H0V2250H1402.41C2269.92 1711.73 1116.94 1494.42 1356.9 750.08Z" fill="url(#paint2_linear)"/>
<path d="M3600 2250V1759.25C3530.84 2009.36 3352.35 2159.69 3168.31 2250H3600Z" fill="url(#paint3_linear)"/>
<defs>
<linearGradient id="paint0_linear" x1="3168.11" y1="126.93" x2="1008.11" y2="1091.92" gradientUnits="userSpaceOnUse">
<stop stop-color="white"/>
<stop offset="0.33" stop-color="#FDFDFD"/>
<stop offset="0.52" stop-color="#F4F4F4"/>
<stop offset="0.67" stop-color="#E6E6E6"/>
<stop offset="0.8" stop-color="#D2D2D2"/>
<stop offset="0.93" stop-color="#B9B9B9"/>
<stop offset="1" stop-color="#A5A5A5"/>
</linearGradient>
<linearGradient id="paint1_linear" x1="4.29981e+06" y1="2.30245e+06" x2="2.89256e+06" y2="5.08652e+06" gradientUnits="userSpaceOnUse">
<stop stop-color="white"/>
<stop offset="0.33" stop-color="#FDFDFD"/>
<stop offset="0.52" stop-color="#F4F4F4"/>
<stop offset="0.67" stop-color="#E6E6E6"/>
<stop offset="0.8" stop-color="#D2D2D2"/>
<stop offset="0.93" stop-color="#B9B9B9"/>
<stop offset="1" stop-color="#A5A5A5"/>
</linearGradient>
<linearGradient id="paint2_linear" x1="319.29" y1="2802.59" x2="1139.3" y2="12.57" gradientUnits="userSpaceOnUse">
<stop stop-color="#419CA3"/>
<stop offset="0.51" stop-color="#429EA5"/>
<stop offset="0.81" stop-color="#46A4AE"/>
<stop offset="1" stop-color="#4AACB8"/>
</linearGradient>
<linearGradient id="paint3_linear" x1="160437" y1="-135764" x2="1.93869e+06" y2="1.04776e+06" gradientUnits="userSpaceOnUse">
<stop stop-color="#419CA3"/>
<stop offset="0.51" stop-color="#429EA5"/>
<stop offset="0.81" stop-color="#46A4AE"/>
<stop offset="1" stop-color="#4AACB8"/>
</linearGradient>
</defs>
</svg>
