<svg width="476" height="902" viewBox="0 0 476 902" fill="none" xmlns="http://www.w3.org/2000/svg">
<path d="M126.65 839.93C130.46 851.33 138.44 878.21 138.44 878.21H146.64C146.64 878.21 146.75 857.96 150.03 851.33C153.31 844.7 125.08 835.26 126.65 839.93Z" fill="url(#paint0_linear)"/>
<path d="M161.26 809.32C161.26 809.32 163.59 823.72 185.65 840.65C199.19 851.01 207.13 854.65 212.65 859.93C217.92 864.93 215.21 870.04 214.05 873.52C211.46 881.29 208.69 883.91 184.76 879.94C162.36 862.08 144.02 856.35 132.02 848.94C126.02 841.06 120.57 831.66 130.95 812.83C141.09 794.42 161.26 809.32 161.26 809.32Z" fill="url(#paint1_linear)"/>
<path d="M163.12 771C163.12 771 154.72 809.09 192 845.34C203.79 856.81 190.34 854.09 155.18 817.34C147.82 809.64 130.91 812.87 130.91 812.87L130.46 761.72C130.46 761.72 159.67 750.46 163.12 771Z" fill="url(#paint2_linear)"/>
<path d="M162.92 353C162.92 353 182.92 397.16 178.92 514.71C176.79 576.57 164 795 164 795C164 795 139.68 794.48 130 786.84C128.61 785.74 122.53 612.11 117.92 561.51C112.92 507.24 95.4199 335.81 95.4199 335.81L162.92 353Z" fill="url(#paint3_linear)"/>
<path style="mix-blend-mode:multiply" d="M161.31 842.7C139.58 820.32 150.82 793.83 150.31 740.07C149.8 686.31 146.18 565.07 143.06 530.07C139.94 495.07 141.19 418.83 148.28 418.22C153.28 417.78 167.74 414.51 175.71 412.64C170.85 370.46 162.94 352.97 162.94 352.97L105.17 338.3C102.17 339.01 99.1699 339.79 95.9199 340.6C98.7799 368.52 113.47 512.6 117.92 561.52C122.53 612.12 128.61 785.75 130 786.85C130.19 786.99 130.49 787.11 130.69 787.26L130.91 812.8C124.1 825.15 124.16 833.41 126.68 839.89C130.49 851.29 138.47 878.17 138.47 878.17H146.67C146.67 878.17 146.76 865.95 148.33 857.38C158.55 862.44 170.86 868.84 184.75 879.9C208.68 883.9 211.45 881.25 214.04 873.48C214.7 871.48 215.71 868.93 215.6 866.19C203.79 872.12 178.64 860.56 161.31 842.7Z" fill="url(#paint4_linear)"/>
<path d="M38.3301 852.6C41.0401 864.31 46.48 891.82 46.48 891.82L54.6399 892.58C54.6399 892.58 56.64 872.44 60.53 866.15C64.42 859.86 37.2101 847.81 38.3301 852.6Z" fill="url(#paint5_linear)"/>
<path d="M75.66 825.37C75.66 825.37 76.6601 839.93 97.0201 858.84C109.51 870.45 117.07 874.84 122.02 880.57C126.79 886.05 123.6 890.87 122.13 894.25C118.82 901.72 115.83 904.08 92.3702 897.88C71.7402 877.99 54.0201 870.58 42.7701 862.04C37.5801 853.63 32.9802 843.76 45.1002 826.04C57.0002 808.66 75.66 825.37 75.66 825.37Z" fill="url(#paint6_linear)"/>
<path d="M81.0901 787.37C81.0901 787.37 69.1699 824.51 102.88 864.1C113.54 876.63 100.41 872.64 68.8799 832.71C62.2599 824.35 45.1399 825.99 45.1399 825.99L49.49 774.99C49.49 774.99 79.5801 766.62 81.0901 787.37Z" fill="url(#paint7_linear)"/>
<path d="M127.34 307.24C127.34 307.24 135.89 417.02 120.85 533.69C112.94 595.1 79.6699 811.37 79.6699 811.37C79.6699 811.37 55.5199 808.58 46.6699 800.06C45.3999 798.86 55.67 625.41 55.78 574.61C55.94 520.1 36.3999 366.08 36.3999 366.08L127.34 307.24Z" fill="url(#paint8_linear)"/>
<path style="mix-blend-mode:multiply" d="M111 352.46L36.3999 366.61C37.6099 376.24 55.85 521.9 55.7 574.61C55.54 625.42 45.3301 798.86 46.5901 800.06C46.7701 800.22 47.04 800.37 47.25 800.53L45.1001 826C37.1501 837.67 36.4301 845.9 38.3301 852.58C41.0601 864.29 46.48 891.8 46.48 891.8L54.6499 892.57C54.6499 892.57 55.87 880.4 58.24 872.04C67.97 878.04 79.6099 885.54 92.3899 897.86C115.87 904.06 118.84 901.7 122.17 894.23C122.43 893.61 122.77 892.9 123.09 892.23C97.3401 890.62 62.3699 845.56 61.8899 819.31C61.4099 793.06 81.77 608.9 87.29 556.75C92.81 504.6 81.2901 442.88 96.0601 441.15C103.84 440.23 117.54 437.5 128.79 435.15C129.92 405.32 129.9 378.65 129.46 357.42L111 352.46Z" fill="url(#paint9_linear)"/>
<path d="M340.75 280.44C332.43 285.27 315.44 288.87 309.23 288.93C309.23 288.93 295.06 287.45 277.53 285.18L275.23 313.07C297.92 313.42 315.72 313.16 315.72 313.16C330.56 318.36 330.1 323.22 348.05 323.05C364.33 322.89 362.69 295.22 358.05 285.33C353.41 275.44 349.07 275.6 340.75 280.44Z" fill="url(#paint10_linear)"/>
<path d="M130.24 138.64C138.34 131.72 157.35 132.38 170.05 153.76C182.75 175.14 209.71 255.84 216.05 261.06C222.39 266.28 306.86 285.94 306.86 285.94C306.86 285.94 306.17 317.01 300.86 318.13C290.62 320.25 198.24 306.77 189.86 300.13C170.27 284.63 173.86 278.39 146.94 228.62C120.02 178.85 112.34 154 130.24 138.64Z" fill="url(#paint11_linear)"/>
<path style="mix-blend-mode:multiply" d="M340.75 280.44C338.126 281.882 335.375 283.077 332.53 284.01C331.86 290.81 331.24 296.74 328.04 299.29C321.94 304.12 266.63 297.29 259.13 296.23C253.53 295.45 254.21 287.23 255.48 273.32C236.48 268.32 218.79 263.32 216.02 261.06C213.63 259.06 208.26 246.22 201.83 229.87C198.167 229.293 194.611 228.17 191.28 226.54C187.22 224.35 189.9 212.31 192.05 204.75C183.95 183.9 175.63 163.12 170.05 153.75C157.35 132.37 138.34 131.75 130.24 138.63C112.34 153.94 119.96 178.84 146.88 228.63C173.8 278.42 170.21 284.63 189.8 300.14C198.16 306.76 290.54 320.24 300.8 318.14C302.03 317.89 302.99 315.94 303.8 313.26C311.21 313.26 315.8 313.17 315.8 313.17C330.64 318.37 330.18 323.23 348.13 323.06C364.41 322.9 362.77 295.23 358.13 285.34C353.49 275.45 349.07 275.6 340.75 280.44Z" fill="url(#paint12_linear)"/>
<path d="M87.3201 10.9301C87.3201 10.9301 58.7701 -8.86995 44.7901 13.28C30.8101 35.43 57.1301 57.13 73.7901 54.07C90.4501 51.01 101.81 13.8801 87.3201 10.9301Z" fill="#07282B"/>
<path d="M97.5401 7.69999C97.5401 7.69999 87.66 5.15002 80.71 7.23002C65.42 11.83 51.4002 50.3201 68.0802 62.0601C84.7602 73.8001 99.0001 14.26 97.5401 7.69999Z" fill="url(#paint13_linear)"/>
<path d="M152.91 86.3C152.91 86.3 165.42 57.3 163.24 38.3C161.06 19.3 145.68 -5.15003 105.86 1.09997C66.0402 7.34997 62.28 45.17 71.67 70.8C81.06 96.43 87.04 98.2799 83.89 110.32C80.74 122.36 152.91 86.3 152.91 86.3Z" fill="#07282B"/>
<path style="mix-blend-mode:multiply" d="M163.24 38.3C163.11 37.17 162.77 36 162.55 34.84C154.35 33.36 152.91 23.2399 149.3 28.5699C145.24 34.5699 124.61 30.71 109.86 30.08C95.1102 29.45 97.1001 42.9 90.5401 44.14C83.9801 45.38 77.1101 58.53 75.5401 51.96C73.9701 45.39 63.98 41.02 51.17 33.48C44.09 29.32 42.89 22.29 43.17 16.79C36.03 32.79 48.5401 47.91 62.0101 52.73C63.1501 56.46 64.9202 59.8301 68.0802 62.0601C68.4894 62.2871 68.9177 62.4778 69.3602 62.63C69.9678 65.3967 70.7389 68.1249 71.67 70.8C81.06 96.44 87.04 98.2799 83.89 110.32C80.74 122.36 152.89 86.3199 152.89 86.3199C152.89 86.3199 165.42 57.35 163.24 38.3Z" fill="url(#paint14_linear)"/>
<path d="M138.05 129.82C133.808 127.8 129.446 126.04 124.99 124.55C124.29 120.84 123.32 112.17 122.84 108.55C128.52 108.23 132.35 107.31 139.17 105.31C154.66 100.74 158.07 64.85 158.57 40.39C153.71 39.51 152.12 34.9101 150.72 33.1801C144.18 37.8301 138.49 41.78 127.6 40.64C103.87 38.27 108.6 36.28 103.52 38.91C98.44 41.54 98.6001 50.13 98.6001 50.13C98.6001 50.13 87.7099 48.67 84.3999 55.74C81.0899 62.81 94.8601 73.58 94.8601 73.58C94.8601 73.58 90.1599 121.58 61.1699 132.44C61.1699 132.44 80.1701 129.51 87.3601 135.44C116 159.04 114.27 173.95 134.75 177.5C157 181.32 153.53 159.41 138.05 129.82Z" fill="url(#paint15_linear)"/>
<path style="mix-blend-mode:multiply" d="M94.8601 73.58C94.8601 73.58 81.0299 62.83 84.3999 55.74C87.7699 48.65 98.6001 50.13 98.6001 50.13C98.6001 50.13 98.44 41.5 103.52 38.91C108.6 36.32 103.87 38.27 127.6 40.64C138.49 41.78 144.18 37.8301 150.72 33.1801C152.12 34.9101 153.72 39.51 158.57 40.39C158.51 43.17 158.39 46.1601 158.25 49.1801C156.824 48.2901 155.543 47.1873 154.45 45.91C150.83 41.46 152.78 45.08 136.05 45.91C119.32 46.74 110.33 41.46 108.12 47.04C105.91 52.62 101.42 56.8101 99.75 56.8101C98.08 56.8101 87.4199 54.5701 86.8799 57.9301C86.3399 61.2901 98.0101 67.93 98.6001 70.2C99.1901 72.47 94.44 96.2 97.22 99.2C100 102.2 120.97 107.58 136.87 101.72C140.109 100.43 143.479 99.4976 146.92 98.9399C144.71 101.94 142.24 104.39 139.17 105.28C132.35 107.28 128.52 108.2 122.84 108.52C122.96 109.3 123.08 110.37 123.22 111.52C120.76 111.83 118.43 112.07 116.5 112.17C107.84 112.62 104.63 120.17 111.25 119.87C117.55 119.6 116.25 116.96 123.71 115.45C124.13 118.86 124.6 122.45 124.99 124.52C128.902 125.814 132.732 127.343 136.46 129.1C138.167 133.478 139.606 137.957 140.77 142.51L103.48 150.94C98.5346 145.343 93.1438 140.156 87.3601 135.43C80.1301 129.43 61.1699 132.43 61.1699 132.43C90.1599 121.54 94.8601 73.58 94.8601 73.58Z" fill="url(#paint16_linear)"/>
<path d="M387.49 779.08L274 763.39L361.7 129.78L475.16 145.46L387.49 779.08Z" fill="url(#paint17_linear)"/>
<g style="mix-blend-mode:multiply">
<path d="M357.92 775.01L303.53 767.5L391.24 133.85L445.62 141.39L357.92 775.01Z" fill="#B6A605"/>
</g>
<path d="M437.71 15.84L361.7 129.78L475.16 145.46L437.71 15.84Z" fill="#F5E439"/>
<path d="M451.13 62.28L437.71 15.84L410.48 56.67L451.13 62.28Z" fill="#3D3702"/>
<path d="M383.45 808.26L269.94 792.56L274 763.39L387.49 779.08L383.45 808.26Z" fill="#3D3702"/>
<path d="M269.94 792.56L261.49 853.7C260.982 857.466 261.982 861.28 264.273 864.312C266.563 867.345 269.959 869.349 273.72 869.89L358.81 881.62C360.673 881.881 362.569 881.773 364.39 881.301C366.211 880.829 367.921 880.003 369.423 878.87C370.924 877.737 372.188 876.319 373.141 874.698C374.095 873.076 374.72 871.283 374.98 869.42L383.45 808.26L269.94 792.56Z" fill="url(#paint18_linear)"/>
<path d="M145.74 135.62C156.08 164.76 184.16 199.22 179.47 221.72C161.35 287.66 158.57 321.63 175.4 392.06C177.92 402.57 118.48 402.44 90.13 400.06C61.78 397.68 29.08 403.11 31.9 394.18C54.17 323.87 24.17 231.06 37.15 165.77C45.76 122.43 70.7401 132.24 101.75 127.77C130.14 123.71 142.1 125.4 145.74 135.62Z" fill="url(#paint19_linear)"/>
<path d="M113.36 126.42C113.36 126.42 98.6 120.67 89.6 118.1C81.12 115.68 81.05 115.22 81.05 115.22C81.05 115.22 67.0499 128.65 61.1699 131.22C55.2899 133.79 83.9599 139.82 97.1699 140.1C110.38 140.38 113.36 134.51 113.36 126.42Z" fill="#07282B"/>
<path d="M113.36 126.42C113.36 126.42 115.19 126.95 119.65 131.72C124.11 136.49 130.53 135.55 130.53 135.55C130.53 135.55 145.03 130.26 140.45 128.66C132.13 125.75 126.45 121.5 123.98 117.66C120.53 118.73 113.36 126.42 113.36 126.42Z" fill="#07282B"/>
<path d="M179.34 199.24C169.54 177.98 149.34 125.1 144.64 125.73C139.94 126.36 139.31 125.34 138.05 129.82C136.79 134.3 152.61 144.1 116.05 145.51C88.38 146.58 75.29 128.91 66.98 127.68C63.07 127.1 42.9801 127.68 32.8501 142.27C25.1501 153.42 20.9901 171.11 19.1101 191.86C25.8001 176.15 40.86 145.57 56.05 146.96C76.44 148.83 86.0499 177.65 75.1299 211.72C64.2099 245.79 60.7399 271.95 34.1799 263.56C27.6899 261.56 36.1801 260.16 32.3501 256.31C35.7801 315.61 33.3001 372.41 32.3501 374.54C30.6801 378.29 35.19 382.1 71.52 385.79C107.85 389.48 176.32 383.3 174.69 375.47C156.28 287.2 189.14 220.49 179.34 199.24Z" fill="url(#paint20_linear)"/>
<path style="mix-blend-mode:multiply" d="M140.9 236C141.39 226.55 141.58 218.87 141.17 213.94C138.9 186.15 129.75 159.4 124.07 144.94C121.74 145.16 119.19 145.35 116.18 145.46C121.54 158.79 131.4 186.46 133.7 214.46C134.09 219.21 133.89 226.84 133.37 236.46C127.59 236.8 121.73 237.11 115.63 237.39C109.69 237.67 103.56 237.96 97.25 238.31C87.1829 238.76 77.0965 238.479 67.0701 237.47C66.2401 240.01 65.4 242.47 64.53 244.76C72.77 245.53 81.03 246.04 88.77 246.04C91.83 246.04 94.8199 245.97 97.6899 245.81C103.97 245.44 110.05 245.17 115.99 244.89C121.93 244.61 127.4 244.32 132.99 243.99C132.64 249.84 132.21 256.18 131.76 262.99C130.4 283.36 128.83 307.37 128.05 332.48C123.95 332.7 119.94 332.93 115.67 333.12C109.73 333.4 103.6 333.69 97.29 334.05C78.35 335.16 53.5101 332.05 34.1101 328.86C34.1101 331.48 34.11 334.03 34.02 336.49C50.68 339.2 71.1001 341.78 88.8101 341.78C91.8701 341.78 94.86 341.71 97.73 341.55C104.01 341.18 110.09 340.9 116.03 340.62C120.1 340.43 123.94 340.2 127.86 339.99C127.51 355.07 127.67 370.37 128.18 385.59C130.73 385.4 133.18 385.2 135.68 384.98C135.16 369.85 135.01 354.63 135.38 339.61C146.854 338.977 158.283 337.688 169.61 335.75C169.46 333.23 169.24 330.66 169.17 328.19C158.061 330.157 146.844 331.456 135.58 332.08C136.36 307.31 137.91 283.63 139.24 263.48C139.73 256.17 140.15 249.61 140.52 243.48C153.062 242.688 165.527 240.956 177.81 238.3C178.28 235.56 178.74 232.88 179.13 230.36C166.561 233.276 153.775 235.162 140.9 236V236Z" fill="url(#paint21_linear)"/>
<path style="mix-blend-mode:multiply" d="M32.6899 263C32.6399 262.09 32.59 261.16 32.55 260.26C31.76 261.23 30.9999 262.07 32.6899 263ZM173.89 371C153.34 376.14 105.41 378.75 76.3201 372.76C44.4401 366.19 64.6 324.01 66.97 288.76C69.34 253.51 82.8799 226.95 89.4399 206.4C95.9999 185.85 95.9999 145.4 60.3899 134.87C45.2799 130.41 35.0801 139.15 28.3101 150.67C23.4801 161.48 20.5701 175.67 19.1001 191.86C25.7901 176.15 40.85 145.57 56.04 146.96C76.43 148.83 86.0401 177.65 75.1201 211.72C64.2001 245.79 60.7299 271.95 34.1699 263.56C33.6604 263.398 33.1653 263.194 32.6899 262.95C35.5699 319.77 33.2501 372.49 32.3401 374.54C30.6701 378.29 35.18 382.1 71.51 385.79C107.84 389.48 176.31 383.3 174.68 375.47C174.36 374 174.17 372.49 173.89 371ZM32.3401 256.33C32.4201 257.63 32.47 258.92 32.55 260.23C33.31 259.21 34.0001 258 32.3401 256.31V256.33Z" fill="url(#paint22_linear)"/>
<path style="mix-blend-mode:multiply" d="M32.9399 259.61C33.0341 259.444 33.1144 259.27 33.1799 259.09C33.2386 258.955 33.2823 258.814 33.3101 258.67C33.349 258.435 33.349 258.195 33.3101 257.96C33.3101 257.83 33.31 257.72 33.25 257.58C33.0522 257.1 32.7557 256.668 32.3799 256.31C32.4599 257.61 32.5101 258.9 32.5901 260.21C32.7234 260.02 32.8404 259.819 32.9399 259.61V259.61ZM148.26 142C150.01 146 168.66 187.07 174.71 203.07C177.104 209.358 178.931 215.847 180.17 222.46C181.45 212.38 181.7 204.33 179.34 199.2C169.54 177.94 149.34 125.06 144.64 125.69C140.84 126.21 139.7 125.78 138.73 127.91C131.41 125.03 126.28 121.17 123.98 117.59C120.54 118.69 113.45 126.29 113.38 126.37H113.32C113.08 126.28 98.5201 120.61 89.6001 118.06C81.1201 115.64 81.05 115.18 81.05 115.18C81.05 115.18 73.14 122.73 66.72 127.63C62.43 127.09 42.7701 127.85 32.8401 142.23C31.0983 144.869 29.5988 147.661 28.3601 150.57C28.3601 150.57 28.3601 150.57 28.3101 150.63C28.2601 150.69 28.3101 150.63 28.3101 150.63C27.5201 152.4 26.8599 154.39 26.1599 156.34C25.6299 157.82 25.0999 159.34 24.6299 160.88C24.0799 162.8 23.5501 164.78 23.0701 166.88C22.5901 168.98 22.0699 171.22 21.6899 173.47C21.3699 175.2 21.01 176.87 20.75 178.67C20.09 182.89 19.5201 187.26 19.1101 191.83C23.3301 181.92 30.8699 166.16 39.6799 156.17C38.6514 159.321 37.81 162.53 37.1599 165.78C31.4299 194.6 34.0699 228.78 36.8899 264.01C35.9599 263.79 35.1899 263.85 34.1799 263.53C33.6704 263.368 33.1753 263.164 32.7 262.92C32.65 262.01 32.6001 261.08 32.5601 260.18L32.25 260.59C32.1451 260.734 32.0482 260.885 31.96 261.04C31.8538 261.19 31.779 261.36 31.74 261.54C31.7305 261.583 31.7305 261.627 31.74 261.67C31.7135 261.872 31.7673 262.077 31.8899 262.24C31.8899 262.24 31.8899 262.24 31.8899 262.3C32.1037 262.559 32.3694 262.77 32.6699 262.92C32.6699 263.27 32.67 263.62 32.73 263.92C32.87 266.86 33.0101 269.81 33.1201 272.72C33.1201 273.15 33.1199 273.57 33.1799 274C33.3099 277.25 33.43 280.47 33.52 283.65C33.52 283.81 33.52 283.96 33.52 284.11C34.89 328.74 33.36 366.8 32.52 373.48C32.4915 373.819 32.4279 374.154 32.3301 374.48C31.6201 376.07 32.23 377.69 35.75 379.28C34.66 384.34 33.4299 389.28 31.8899 394.16C29.0699 403.09 61.7501 397.68 90.1201 400.04C95.3201 400.46 101.58 400.83 108.31 401.04C64.8401 394.87 73.0299 355.63 72.3999 344.38C71.7699 333.13 103.73 340.32 116.15 337.27C128.57 334.22 141.93 328.13 140.67 337.7C139.41 347.27 138.67 355.79 151.54 358.97C157.74 360.49 165.71 360.97 172.36 361.12C171.04 352.47 170.03 343.97 169.54 335.8C169.39 333.28 169.17 330.71 169.1 328.24C167.91 290.24 174.35 258.48 178.29 235.06C170.98 234.71 163.91 234.69 158.55 235.82C147.21 238.19 151.14 264.38 145.55 277.16C139.96 289.94 104.3 288.76 83.28 287.32C62.26 285.88 95.86 224.7 99.5 192.68C103.14 160.66 82.7401 148.15 118.32 150.89C153.9 153.63 148.26 142 148.26 142Z" fill="url(#paint23_linear)"/>
<path d="M236.85 355.7C236.742 356.686 236.247 357.588 235.475 358.211C234.703 358.833 233.716 359.124 232.73 359.02L151.61 350.51C150.625 350.402 149.722 349.91 149.097 349.14C148.471 348.371 148.175 347.387 148.27 346.4L159.14 242.91C159.191 242.419 159.339 241.943 159.574 241.51C159.809 241.076 160.128 240.693 160.512 240.383C160.895 240.073 161.336 239.841 161.81 239.702C162.283 239.562 162.779 239.517 163.27 239.57L244.38 248.08C245.367 248.183 246.273 248.674 246.9 249.445C247.526 250.215 247.821 251.202 247.72 252.19L236.85 355.7Z" fill="url(#paint24_linear)"/>
<path style="mix-blend-mode:multiply" d="M177.33 241.05L176.97 244.61C176.59 248.17 178.97 251.34 182.15 251.68L223.39 256C226.61 256.34 229.55 253.73 229.94 250.17L230.3 246.6L177.33 241.05Z" fill="url(#paint25_linear)"/>
<path d="M229.55 347.38L157.13 339.78L166.26 252.91L238.67 260.51L229.55 347.38Z" fill="#F5F5F5"/>
<path d="M220 251.18L218.75 263.03C218.644 264.016 218.153 264.921 217.383 265.546C216.613 266.172 215.627 266.468 214.64 266.37L188.52 263.63C188.031 263.58 187.557 263.434 187.124 263.2C186.692 262.966 186.31 262.649 186 262.267C185.691 261.885 185.46 261.446 185.321 260.975C185.182 260.503 185.137 260.009 185.19 259.52L186.42 247.65" stroke="#7B7B7B" stroke-width="3" stroke-miterlimit="10"/>
<path d="M227.46 249C227.26 250.346 226.536 251.558 225.446 252.373C224.356 253.188 222.988 253.539 221.64 253.35L184.41 249.44C183.736 249.398 183.077 249.223 182.471 248.926C181.865 248.628 181.324 248.214 180.879 247.706C180.434 247.199 180.094 246.609 179.877 245.969C179.661 245.329 179.574 244.653 179.62 243.98L180.19 238.57C180.286 237.903 180.512 237.261 180.855 236.681C181.199 236.101 181.654 235.595 182.194 235.191C182.733 234.787 183.347 234.493 184 234.327C184.653 234.16 185.333 234.124 186 234.22L223.24 238.13C224.598 238.228 225.862 238.857 226.759 239.881C227.656 240.905 228.113 242.241 228.03 243.6L227.46 249Z" fill="url(#paint26_linear)"/>
<path style="mix-blend-mode:multiply" d="M149.72 332.63C170.45 341.96 187.81 329.63 190.85 308.82C194.28 285.39 175.85 270.39 169.67 274.4C164.947 277.275 160.055 279.863 155.02 282.15L149.72 332.63Z" fill="url(#paint27_linear)"/>
<path d="M162.45 285.94C154.45 291.3 137.74 296.02 131.54 296.48C131.54 296.48 117.32 295.92 99.6799 294.81L99.2 322.81C121.87 321.65 139.61 320.23 139.61 320.23C154.76 324.46 154.61 329.34 172.53 327.98C188.77 326.75 185.3 299.25 180 289.7C174.7 280.15 170.43 280.57 162.45 285.94Z" fill="url(#paint28_linear)"/>
<path d="M52.7601 140.16C63.3501 139.11 78.5901 150.5 76.8201 175.3C75.0501 200.1 51.0801 281.75 53.2801 289.63C55.4801 297.51 133.39 292.04 133.39 292.04C133.39 292.04 135.56 315.49 128.23 322.97C120.9 330.45 5.42013 336.47 2.33013 326.26C-4.88987 302.35 8.70009 279.78 15.0301 223.54C21.3601 167.3 29.3301 142.51 52.7601 140.16Z" fill="url(#paint29_linear)"/>
<path style="mix-blend-mode:multiply" d="M129.58 321C135.78 320.58 139.58 320.27 139.58 320.27C154.73 324.5 154.58 329.38 172.5 328.02C183.66 327.17 185.42 314.02 183.78 302.68C138.28 320.15 31.6399 312.92 28.6399 305.23C25.4999 297.23 36.1401 207.64 41.0701 175.41C43.9301 156.78 52.47 146.58 59.22 141.15C57.1436 140.397 54.9349 140.077 52.73 140.21C29.3 142.56 21.3301 167.34 15.0001 223.59C8.67006 279.84 -4.91989 302.4 2.30011 326.31C5.39011 336.52 120.86 330.5 128.2 323.02C128.73 322.397 129.192 321.72 129.58 321V321Z" fill="url(#paint30_linear)"/>
<defs>
<linearGradient id="paint0_linear" x1="52218.3" y1="79288" x2="52333.3" y2="80817.8" gradientUnits="userSpaceOnUse">
<stop stop-color="#101719"/>
<stop offset="1" stop-color="#243137"/>
</linearGradient>
<linearGradient id="paint1_linear" x1="64532.3" y1="225149" x2="63186.5" y2="229724" gradientUnits="userSpaceOnUse">
<stop stop-color="#101719"/>
<stop offset="1" stop-color="#243137"/>
</linearGradient>
<linearGradient id="paint2_linear" x1="65513.7" y1="188702" x2="64757.8" y2="202369" gradientUnits="userSpaceOnUse">
<stop stop-color="#FFD1AE"/>
<stop offset="1" stop-color="#F9AC78"/>
</linearGradient>
<linearGradient id="paint3_linear" x1="-426670" y1="691862" x2="-478546" y2="800681" gradientUnits="userSpaceOnUse">
<stop stop-color="#101719"/>
<stop offset="1" stop-color="#243137"/>
</linearGradient>
<linearGradient id="paint4_linear" x1="263783" y1="808278" x2="323194" y2="1.10399e+06" gradientUnits="userSpaceOnUse">
<stop stop-color="white"/>
<stop offset="1" stop-color="#BFBFBF"/>
</linearGradient>
<linearGradient id="paint5_linear" x1="40879" y1="92911" x2="40859.5" y2="94503.9" gradientUnits="userSpaceOnUse">
<stop stop-color="#101719"/>
<stop offset="1" stop-color="#243137"/>
</linearGradient>
<linearGradient id="paint6_linear" x1="30196" y1="252028" x2="28322" y2="256738" gradientUnits="userSpaceOnUse">
<stop stop-color="#101719"/>
<stop offset="1" stop-color="#243137"/>
</linearGradient>
<linearGradient id="paint7_linear" x1="39282.8" y1="216993" x2="37194.4" y2="231197" gradientUnits="userSpaceOnUse">
<stop stop-color="#FFD1AE"/>
<stop offset="1" stop-color="#F9AC78"/>
</linearGradient>
<linearGradient id="paint8_linear" x1="-548817" y1="767510" x2="-624033" y2="895902" gradientUnits="userSpaceOnUse">
<stop stop-color="#101719"/>
<stop offset="1" stop-color="#243137"/>
</linearGradient>
<linearGradient id="paint9_linear" x1="232393" y1="800136" x2="187793" y2="1.13676e+06" gradientUnits="userSpaceOnUse">
<stop stop-color="white"/>
<stop offset="1" stop-color="#BFBFBF"/>
</linearGradient>
<linearGradient id="paint10_linear" x1="197757" y1="87651.9" x2="201515" y2="87838.3" gradientUnits="userSpaceOnUse">
<stop stop-color="#FFD1AE"/>
<stop offset="1" stop-color="#F9AC78"/>
</linearGradient>
<linearGradient id="paint11_linear" x1="425052" y1="-184417" x2="443580" y2="-150781" gradientUnits="userSpaceOnUse">
<stop stop-color="white"/>
<stop offset="1" stop-color="#BFBFBF"/>
</linearGradient>
<linearGradient id="paint12_linear" x1="591908" y1="287664" x2="521460" y2="223085" gradientUnits="userSpaceOnUse">
<stop stop-color="white"/>
<stop offset="1" stop-color="#BFBFBF"/>
</linearGradient>
<linearGradient id="paint13_linear" x1="79389.8" y1="71943.7" x2="76347.9" y2="70751.7" gradientUnits="userSpaceOnUse">
<stop stop-color="#F6F600"/>
<stop offset="1" stop-color="#E13933"/>
</linearGradient>
<linearGradient id="paint14_linear" x1="268985" y1="118303" x2="259921" y2="108364" gradientUnits="userSpaceOnUse">
<stop stop-color="white"/>
<stop offset="1" stop-color="#BFBFBF"/>
</linearGradient>
<linearGradient id="paint15_linear" x1="76424.4" y1="231804" x2="80406.4" y2="276772" gradientUnits="userSpaceOnUse">
<stop stop-color="#FFD1AE"/>
<stop offset="1" stop-color="#F9AC78"/>
</linearGradient>
<linearGradient id="paint16_linear" x1="-497293" y1="134703" x2="-500830" y2="153367" gradientUnits="userSpaceOnUse">
<stop stop-color="white"/>
<stop offset="1" stop-color="#BFBFBF"/>
</linearGradient>
<linearGradient id="paint17_linear" x1="358888" y1="1.0633e+06" x2="280805" y2="1.62747e+06" gradientUnits="userSpaceOnUse">
<stop stop-color="#F6F600"/>
<stop offset="1" stop-color="#E13933"/>
</linearGradient>
<linearGradient id="paint18_linear" x1="320.075" y1="849.44" x2="331.398" y2="767.629" gradientUnits="userSpaceOnUse">
<stop stop-color="#10A393"/>
<stop offset="0.99" stop-color="#085149"/>
</linearGradient>
<linearGradient id="paint19_linear" x1="320572" y1="366088" x2="324410" y2="453833" gradientUnits="userSpaceOnUse">
<stop stop-color="white"/>
<stop offset="1" stop-color="#BFBFBF"/>
</linearGradient>
<linearGradient id="paint20_linear" x1="350040" y1="336079" x2="349526" y2="450680" gradientUnits="userSpaceOnUse">
<stop stop-color="#F6F600"/>
<stop offset="1" stop-color="#E13933"/>
</linearGradient>
<linearGradient id="paint21_linear" x1="315034" y1="367413" x2="310940" y2="321846" gradientUnits="userSpaceOnUse">
<stop stop-color="white"/>
<stop offset="1" stop-color="#BFBFBF"/>
</linearGradient>
<linearGradient id="paint22_linear" x1="334420" y1="420211" x2="340591" y2="294434" gradientUnits="userSpaceOnUse">
<stop stop-color="white"/>
<stop offset="1" stop-color="#BFBFBF"/>
</linearGradient>
<linearGradient id="paint23_linear" x1="349835" y1="327734" x2="349835" y2="493532" gradientUnits="userSpaceOnUse">
<stop stop-color="white"/>
<stop offset="1" stop-color="#BFBFBF"/>
</linearGradient>
<linearGradient id="paint24_linear" x1="206.124" y1="223.266" x2="190.569" y2="371.512" gradientUnits="userSpaceOnUse">
<stop stop-color="#372505"/>
<stop offset="1" stop-color="#6E4A0B"/>
</linearGradient>
<linearGradient id="paint25_linear" x1="119167" y1="35915.9" x2="119180" y2="35791.8" gradientUnits="userSpaceOnUse">
<stop stop-color="white"/>
<stop offset="1" stop-color="#BFBFBF"/>
</linearGradient>
<linearGradient id="paint26_linear" x1="203.542" y1="247.971" x2="205.009" y2="233.988" gradientUnits="userSpaceOnUse">
<stop stop-color="#7B7B7B"/>
<stop offset="1" stop-color="#3D3D3D"/>
</linearGradient>
<linearGradient id="paint27_linear" x1="95310.4" y1="90945" x2="90821.8" y2="90441.8" gradientUnits="userSpaceOnUse">
<stop stop-color="white"/>
<stop offset="1" stop-color="#BFBFBF"/>
</linearGradient>
<linearGradient id="paint28_linear" x1="184418" y1="71138.6" x2="188146" y2="71081.1" gradientUnits="userSpaceOnUse">
<stop stop-color="#FFD1AE"/>
<stop offset="1" stop-color="#F9AC78"/>
</linearGradient>
<linearGradient id="paint29_linear" x1="285284" y1="256225" x2="280442" y2="287999" gradientUnits="userSpaceOnUse">
<stop stop-color="white"/>
<stop offset="1" stop-color="#BFBFBF"/>
</linearGradient>
<linearGradient id="paint30_linear" x1="406061" y1="289396" x2="378186" y2="259375" gradientUnits="userSpaceOnUse">
<stop stop-color="white"/>
<stop offset="1" stop-color="#BFBFBF"/>
</linearGradient>
</defs>
</svg>
